<svg xmlns="http://www.w3.org/2000/svg" viewBox="0 0 32 32"><defs><style>.cls-1{fill:#f7aa44;}.cls-2{fill:#fff;}</style></defs><title>测试管理-度量分析-转曲</title><g id="图层_1" data-name="图层 1"><rect class="cls-1" width="32" height="32" rx="4"/><path class="cls-2" d="M12.9,12h6.2A.84.84,0,0,0,19.9,11a4,4,0,0,0-7.8,0A.84.84,0,0,0,12.9,12Z"/><path class="cls-2" d="M21,19.32c0-.1,0-.21,0-.31V17.2h1.78a.62.62,0,0,0,.62-.62.62.62,0,0,0-.62-.62H21V14.32a3.61,3.61,0,0,0,2.39-3.39.63.63,0,0,0-1.25,0,2.36,2.36,0,0,1-1.62,2.24.78.78,0,0,0-.35-.08H11.85a.87.87,0,0,0-.36.09,2.36,2.36,0,0,1-1.63-2.25.63.63,0,0,0-1.25,0A3.62,3.62,0,0,0,11,14.33V16H9.22a.62.62,0,0,0-.62.62.62.62,0,0,0,.62.62H11V19c0,.1,0,.2,0,.3a3.62,3.62,0,0,0-2.43,3.41.63.63,0,0,0,1.25,0,2.37,2.37,0,0,1,1.41-2.17,5,5,0,0,0,9.48,0,2.38,2.38,0,0,1,1.39,2.16.63.63,0,0,0,1.25,0A3.62,3.62,0,0,0,21,19.32Zm-4.37,2.26a.62.62,0,1,1-1.24,0V16.82a.62.62,0,0,1,1.24,0Z"/></g></svg>