<?xml version="1.0" standalone="no"?>
<!DOCTYPE svg PUBLIC "-//W3C//DTD SVG 1.1//EN" "http://www.w3.org/Graphics/SVG/1.1/DTD/svg11.dtd" >
<!--
2013-9-30: Created.
-->
<svg>
<metadata>
Created by iconfont
</metadata>
<defs>

<font id="bn" horiz-adv-x="1024" >
  <font-face
    font-family="bn"
    font-weight="500"
    font-stretch="normal"
    units-per-em="1024"
    ascent="896"
    descent="-128"
  />
    <missing-glyph />
    
    <glyph glyph-name="jiqizu" unicode="&#59437;" d="M0 896m146.285714 0l731.428572 0q146.285714 0 146.285714-146.285714l0-731.428572q0-146.285714-146.285714-146.285714l-731.428572 0q-146.285714 0-146.285714 146.285714l0 731.428572q0 146.285714 146.285714 146.285714ZM512 384m-316.952381 0a316.952381 316.952381 0 1 1 633.904762 0 316.952381 316.952381 0 1 1-633.904762 0ZM656.335238 585.142857H367.664762a57.051429 57.051429 0 0 1-56.807619-56.807619v-288.670476a57.051429 57.051429 0 0 1 56.807619-56.807619h288.670476a57.051429 57.051429 0 0 1 56.807619 56.807619V528.335238a57.051429 57.051429 0 0 1-56.807619 56.807619zM367.664762 554.666667h288.670476A26.087619 26.087619 0 0 0 682.666667 528.335238v-67.047619H341.333333v67.047619A26.087619 26.087619 0 0 0 367.664762 554.666667zM682.666667 430.32381v-92.64762H341.333333v92.64762zM656.335238 213.333333H367.664762A26.087619 26.087619 0 0 0 341.333333 239.664762v67.047619h341.333334v-67.047619A26.087619 26.087619 0 0 0 656.335238 213.333333zM405.699048 494.445714h69.729523a15.36 15.36 0 1 1 0 30.72h-69.729523a15.36 15.36 0 1 1 0-30.72zM405.699048 368.64h69.729523a15.36 15.36 0 1 1 0 30.72h-69.729523a15.36 15.36 0 1 1 0-30.72zM475.428571 275.748571h-69.729523a15.60381 15.60381 0 1 1 0-30.963809h69.729523a15.60381 15.60381 0 1 1 0 30.963809z"  horiz-adv-x="1024" />

    
    <glyph glyph-name="shenjirizhi" unicode="&#59436;" d="M0 896m78.769231 0l866.461538 0q78.769231 0 78.769231-78.769231l0-866.461538q0-78.769231-78.769231-78.769231l-866.461538 0q-78.769231 0-78.769231 78.769231l0 866.461538q0 78.769231 78.769231 78.769231ZM292.036923 702.818462h507.076923v-621.686154H292.036923zM262.498462 268.209231a29.538462 29.538462 0 0 0-29.538462 29.538461v170.338462a29.538462 29.538462 0 0 0 59.076923 0v-170.338462a29.538462 29.538462 0 0 0-29.538461-29.538461zM817.033846 29.538462H262.498462a29.538462 29.538462 0 0 0-29.538462 29.538461v86.055385a29.538462 29.538462 0 0 0 59.076923 0V88.615385H787.692308V679.384615H292.036923v-61.046153a29.538462 29.538462 0 0 0-59.076923 0V708.923077a29.538462 29.538462 0 0 0 29.538462 29.538461h554.535384A29.538462 29.538462 0 0 0 846.769231 708.923077v-649.846154a29.538462 29.538462 0 0 0-29.735385-29.538461zM317.833846 514.166154h-110.867692a29.538462 29.538462 0 1 0 0 59.076923h110.867692a29.538462 29.538462 0 0 0 0-59.076923zM317.833846 194.756923h-110.867692a29.538462 29.538462 0 1 0 0 59.076923h110.867692a29.538462 29.538462 0 0 0 0-59.076923zM703.212308 530.116923H435.987692a29.538462 29.538462 0 0 0 0 59.076923h267.224616a29.538462 29.538462 0 1 0 0-59.076923zM703.212308 354.461538H435.987692a29.538462 29.538462 0 0 0 0 59.076924h267.224616a29.538462 29.538462 0 0 0 0-59.076924zM703.212308 178.806154H435.987692a29.538462 29.538462 0 0 0 0 59.076923h267.224616a29.538462 29.538462 0 0 0 0-59.076923z"  horiz-adv-x="1024" />

    
    <glyph glyph-name="bushucelve" unicode="&#59061;" d="M538.666667 286.293333H192v192h605.226667v-39.253333a32 32 0 1 1 64 0V771.84a32 32 0 0 1-32 32H160A32 32 0 0 1 128 771.84v-775.68a32 32 0 0 1 32-32l256 5.76a32.213333 32.213333 0 0 1 32 32.853333 32.64 32.64 0 0 1-32.853333 31.146667L192 28.8v193.493333h346.666667a32 32 0 0 1 0 64zM797.226667 739.84v-197.973333H192V739.84zM301.013333 593.493333h87.893334a32 32 0 0 1 0 64h-87.893334a32 32 0 0 1 0-64zM301.013333 423.893333a32 32 0 1 1 0-64h87.893334a32 32 0 0 1 0 64zM301.013333 143.573333a32 32 0 0 1 0-64h87.893334a32 32 0 0 1 0 64zM864 104.106667h-27.306667l11.52 97.92h15.786667a26.666667 26.666667 0 0 1 0 53.333333h-9.386667l5.333334 45.653333a26.666667 26.666667 0 0 1-52.906667 6.4L800.853333 256h-88.533333l5.333333 45.653333a26.666667 26.666667 0 0 1-52.906666 6.4L658.56 256h-38.613333a26.666667 26.666667 0 0 1 0-53.333333h32.213333L640 104.106667h-21.333333a26.666667 26.666667 0 1 1 0-53.333334h14.506666l-5.333333-45.653333a26.666667 26.666667 0 0 1 23.253333-29.653333h3.2a26.88 26.88 0 0 1 28.373334 23.466666l6.186666 51.84h88.533334l-5.333334-45.653333a26.666667 26.666667 0 0 1 23.253334-29.653333h3.2a26.666667 26.666667 0 0 1 26.453333 23.68l6.186667 51.84h32.853333a26.666667 26.666667 0 0 1 0 53.333333z m-170.666667 0l11.52 97.92h88.746667l-11.52-97.92z"  horiz-adv-x="1024" />

    
    <glyph glyph-name="bushumoban" unicode="&#59062;" d="M813.866667 368a32.213333 32.213333 0 0 1-47.146667 0l-217.6-234.666667a32.213333 32.213333 0 0 1-8.106667-17.706666l-13.866666-110.506667a32.213333 32.213333 0 0 1 9.386666-26.88 31.573333 31.573333 0 0 1 22.4-9.173333h4.693334l101.973333 14.933333a32.853333 32.853333 0 0 1 18.986667 9.813333l217.386666 234.666667a31.786667 31.786667 0 0 1 0 42.666667z m-168.746667-322.986667l-49.28-7.253333 7.466667 58.666667L789.333333 298.666667l44.8-48.426667zM428.373333 33.28H177.493333v192H537.6a32 32 0 0 1 0 64H177.493333v187.946667h583.893334v-38.613334a32 32 0 0 1 64 0V768a32 32 0 0 1-32 32H145.493333A32 32 0 0 1 113.493333 768v-766.72a32 32 0 0 1 32-32h282.88a32 32 0 0 1 0 64zM761.386667 736v-194.773333H177.493333V736zM282.026667 591.36h85.333333a32 32 0 0 1 0 64h-85.333333a32 32 0 0 1 0-64zM282.026667 424.32a32 32 0 1 1 0-64h85.333333a32 32 0 0 1 0 64zM282.026667 147.413333a32 32 0 1 1 0-64h85.333333a32 32 0 0 1 0 64z"  horiz-adv-x="1024" />

    
    <glyph glyph-name="caogao" unicode="&#59156;" d="M898.133333 288h-61.866666V744.533333c0 36.266667-29.866667 66.133333-64 66.133334H253.866667c-36.266667 0-64-29.866667-64-66.133334v-456.533333h-64c-32 0-59.733333-27.733333-59.733334-59.733333v-151.466667c0-66.133333 53.333333-119.466667 119.466667-119.466667h652.8c66.133333 0 119.466667 53.333333 119.466667 119.466667v151.466667c0 34.133333-25.6 59.733333-59.733334 59.733333zM253.866667 744.533333l516.266666-2.133333v-456.533333H253.866667V744.533333z m640-665.6c0-29.866667-25.6-55.466667-55.466667-55.466666H185.6c-29.866667 0-55.466667 25.6-55.466667 55.466666v147.2h763.733334v-147.2zM629.333333 567.466667h-234.666666c-17.066667 0-32-14.933333-32-32s14.933333-32 32-32h234.666666c17.066667 0 32 14.933333 32 32s-14.933333 32-32 32z"  horiz-adv-x="1024" />

    
    <glyph glyph-name="bianliang" unicode="&#59060;" d="M823.68 772.906667H200.32a74.666667 74.666667 0 0 1-74.666667-74.666667v-628.48a74.666667 74.666667 0 0 1 74.666667-74.666667h623.36a74.666667 74.666667 0 0 1 74.666667 74.666667V698.24a74.666667 74.666667 0 0 1-74.666667 74.666667z m10.666667-704a10.88 10.88 0 0 0-10.666667-10.666667H200.32a10.88 10.88 0 0 0-10.666667 10.666667V698.24a10.88 10.88 0 0 0 10.666667 10.666667h623.36a10.88 10.88 0 0 0 10.666667-10.666667zM341.333333 618.666667a32 32 0 0 1-32-32v-404.693334a32 32 0 0 1 64 0V586.026667A32 32 0 0 1 341.333333 618.666667zM455.04 512a32 32 0 0 1-32-32v-190.72a32 32 0 0 1 64 0v190.08a32 32 0 0 1-32 32.64zM568.96 618.666667a32 32 0 0 1-32-32v-404.693334a32 32 0 0 1 64 0V586.026667a32 32 0 0 1-32 32.64zM682.666667 512a32 32 0 0 1-32-32v-190.72a32 32 0 1 1 64 0v190.08A32 32 0 0 1 682.666667 512z"  horiz-adv-x="1024" />

    
    <glyph glyph-name="yunhangzhong" unicode="&#59059;" d="M967.253333 206.08l-59.733333 36.053333A433.493333 433.493333 0 1 1 469.333333-42.666667h29.866667a446.506667 446.506667 0 0 1 61.013333 4.266667 32 32 0 1 1-8.96 64 375.893333 375.893333 0 0 0-77.44-2.773333 369.706667 369.706667 0 1 0 377.173334 256l-56.106667 33.706666a10.666667 10.666667 0 0 1-16-9.6l7.466667-182.186666a10.666667 10.666667 0 0 1 15.36-9.173334l164.48 78.506667a10.666667 10.666667 0 0 1 1.066666 16zM682.666667 426.666667l-253.226667 145.066666a34.133333 34.133333 0 0 1-34.346667 0 34.56 34.56 0 0 1-17.28-29.866666v-291.626667a34.56 34.56 0 0 1 17.28-29.866667 33.706667 33.706667 0 0 1 34.346667 0L682.666667 366.08A34.346667 34.346667 0 0 1 682.666667 426.666667z m-234.666667-116.053334V482.133333l149.333333-85.333333z"  horiz-adv-x="1024" />

    
    <glyph glyph-name="qiehuan_lianluzhuizongfuben11" unicode="&#59058;" d="M906.666667 475.306667h-789.333334a32 32 0 0 0 0 64h712.106667l-93.44 93.44a32.213333 32.213333 0 0 0 0 45.226666 31.786667 31.786667 0 0 0 45.226667 0l148.053333-148.053333a32 32 0 0 0 7.04-34.773333 32.213333 32.213333 0 0 0-29.653333-19.84zM265.386667 80.64a31.786667 31.786667 0 0 0-22.613334 9.386667l-148.053333 148.053333a32 32 0 0 0-7.04 34.773333 32.213333 32.213333 0 0 0 29.653333 19.84h789.333334a32 32 0 0 0 0-64H194.56l93.44-93.44a32 32 0 0 0-22.613333-54.613333z"  horiz-adv-x="1024" />

    
    <glyph glyph-name="rili" unicode="&#59057;" d="M310.4 353.066667h-79.573333a32 32 0 1 0 0 64h79.573333a32 32 0 0 0 0-64zM310.4 233.6h-79.573333a32 32 0 0 0 0 64h79.573333a32 32 0 0 0 0-64zM310.4 114.346667h-79.573333a32 32 0 0 0 0 64h79.573333a32 32 0 0 0 0-64zM668.586667 556.373333a278.826667 278.826667 0 0 1-132.053334-33.28 31.786667 31.786667 0 0 1-27.093333 15.146667H138.666667v104.32a7.68 7.68 0 0 0 7.68 7.68h91.306666v-37.12a32 32 0 0 1 64 0v37.12h345.386667v-37.12a32 32 0 0 1 64 0v37.12h90.453333a7.893333 7.893333 0 0 0 7.893334-7.68v-98.346667a32 32 0 0 1 64 0v98.346667a71.893333 71.893333 0 0 1-71.893334 71.68h-90.453333V751.36a32 32 0 0 1-64 0v-37.12H301.653333V751.36a32 32 0 0 1-64 0v-37.12H146.346667a71.893333 71.893333 0 0 1-71.68-71.68v-586.026667a71.893333 71.893333 0 0 1 71.68-71.893333H469.333333a32 32 0 1 1 0 64H146.346667a7.893333 7.893333 0 0 0-7.68 7.893333V474.24h331.733333a280.533333 280.533333 0 1 1 198.186667 82.133333z m0-497.493333A216.746667 216.746667 0 1 0 885.333333 275.626667a216.96 216.96 0 0 0-216.746666-216.746667zM792.96 202.24h-124.373333a32 32 0 0 0-32 32v124.373333a32 32 0 0 0 64 0v-92.373333h92.373333a32 32 0 1 0 0-64z"  horiz-adv-x="1024" />

    
    <glyph glyph-name="xitongshu" unicode="&#59056;" d="M0 896m78.769231 0l866.461538 0q78.769231 0 78.769231-78.769231l0-866.461538q0-78.769231-78.769231-78.769231l-866.461538 0q-78.769231 0-78.769231 78.769231l0 866.461538q0 78.769231 78.769231 78.769231ZM197.12 717.193846m39.384615 0l551.187693 0q39.384615 0 39.384615-39.384615l0-93.144616q0-39.384615-39.384615-39.384615l-551.187693 0q-39.384615 0-39.384615 39.384615l0 93.144616q0 39.384615 39.384615 39.384615ZM197.12 470.843077m39.384615 0l551.187693 0q39.384615 0 39.384615-39.384615l0-93.144616q0-39.384615-39.384615-39.384615l-551.187693 0q-39.384615 0-39.384615 39.384615l0 93.144616q0 39.384615 39.384615 39.384615ZM196.923077 222.523077m39.384615 0l551.187693 0q39.384615 0 39.384615-39.384615l0-93.144616q0-39.384615-39.384615-39.384615l-551.187693 0q-39.384615 0-39.384615 39.384615l0 93.144616q0 39.384615 39.384615 39.384615ZM617.156923 592.147692h-140.012308a29.538462 29.538462 0 1 0 0 59.076923h140.012308a29.538462 29.538462 0 1 0 0-59.076923zM337.132308 592.147692h-35.052308a29.538462 29.538462 0 0 0 0 59.076923h35.052308a29.538462 29.538462 0 0 0 0-59.076923zM617.156923 345.796923h-140.012308a29.538462 29.538462 0 0 0 0 59.076923h140.012308a29.538462 29.538462 0 1 0 0-59.076923zM337.132308 345.796923h-35.052308a29.538462 29.538462 0 0 0 0 59.076923h35.052308a29.538462 29.538462 0 0 0 0-59.076923zM337.132308 97.673846h-35.052308a29.538462 29.538462 0 1 0 0 59.076923h35.052308a29.538462 29.538462 0 0 0 0-59.076923z"  horiz-adv-x="1024" />

    
    <glyph glyph-name="yingyongshu" unicode="&#59055;" d="M945.230769-128H78.769231a78.769231 78.769231 0 0 0-78.769231 78.769231V817.230769a78.769231 78.769231 0 0 0 78.769231 78.769231h866.461538a78.769231 78.769231 0 0 0 78.769231-78.769231v-866.461538a78.769231 78.769231 0 0 0-78.769231-78.769231zM493.489231 340.086154l-284.947693 148.676923a39.384615 39.384615 0 0 0 0 70.892308l284.947693 148.873846a40.96 40.96 0 0 0 37.021538 0l284.947693-148.873846a39.384615 39.384615 0 0 0 0-70.892308l-284.947693-148.676923a39.384615 39.384615 0 0 0-37.021538 0zM512 172.701538a27.175385 27.175385 0 0 0-13.587692 3.347693L174.670769 344.615385a29.538462 29.538462 0 1 0 27.372308 52.381538L512 235.52l309.956923 161.870769A29.538462 29.538462 0 1 0 849.329231 344.615385l-323.741539-168.566154a27.175385 27.175385 0 0 0-13.587692-3.347693zM512 25.403077a29.538462 29.538462 0 0 0-13.587692 3.347692L174.670769 197.710769a29.538462 29.538462 0 1 0 27.372308 52.381539L512 88.615385l309.956923 161.476923a29.538462 29.538462 0 1 0 27.372308-52.381539L525.587692 29.538462a29.538462 29.538462 0 0 0-13.587692-4.135385z"  horiz-adv-x="1024" />

    
    <glyph glyph-name="shilishu" unicode="&#59054;" d="M0 896m78.769231 0l866.461538 0q78.769231 0 78.769231-78.769231l0-866.461538q0-78.769231-78.769231-78.769231l-866.461538 0q-78.769231 0-78.769231 78.769231l0 866.461538q0 78.769231 78.769231 78.769231ZM206.769231 490.929231m39.384615 0l531.692308 0q39.384615 0 39.384615-39.384616l0-352.098461q0-39.384615-39.384615-39.384616l-531.692308 0q-39.384615 0-39.384615 39.384616l0 352.098461q0 39.384615 39.384615 39.384616ZM741.612308 561.230769H282.387692a29.538462 29.538462 0 1 0 0 59.076923h459.224616a29.538462 29.538462 0 0 0 0-59.076923zM658.904615 678.4H365.095385a29.538462 29.538462 0 0 0 0 59.076923h293.80923a29.538462 29.538462 0 0 0 0-59.076923z"  horiz-adv-x="1024" />

    
    <glyph glyph-name="fuwujiankong" unicode="&#59051;" d="M0 896m78.769231 0l866.461538 0q78.769231 0 78.769231-78.769231l0-866.461538q0-78.769231-78.769231-78.769231l-866.461538 0q-78.769231 0-78.769231 78.769231l0 866.461538q0 78.769231 78.769231 78.769231ZM177.230769 694.547692h669.538462v-472.615384H177.230769zM794.387692 25.600000000000023H228.824615a29.538462 29.538462 0 1 0 0 59.076923h565.563077a29.538462 29.538462 0 0 0 0-59.076923zM876.307692 174.08000000000004h-728.615384a29.538462 29.538462 0 0 0-29.538462 29.538462V712.861538a29.538462 29.538462 0 0 0 29.538462 29.538462h728.615384A29.538462 29.538462 0 0 0 905.846154 712.861538v-509.243076a29.538462 29.538462 0 0 0-29.538462-29.538462z m-699.076923 59.076923h669.538462V683.323077H177.230769zM290.461538 361.74769200000003a28.947692 28.947692 0 0 0-20.873846 8.664616 29.341538 29.341538 0 0 0 0 41.747692l116.972308 116.972308a59.076923 59.076923 0 0 0 83.495385 0L556.307692 443.076923l156.356923 156.356923a29.735385 29.735385 0 0 0 41.747693 0 29.341538 29.341538 0 0 0 0-41.747692l-156.356923-156.356923a59.076923 59.076923 0 0 0-83.495385 0l-86.252308 86.252307-116.972307-116.972307a28.947692 28.947692 0 0 0-20.873847-8.861539z"  horiz-adv-x="1024" />

    
    <glyph glyph-name="yingyongzhongxin21" unicode="&#59052;" d="M0 896m78.769231 0l866.461538 0q78.769231 0 78.769231-78.769231l0-866.461538q0-78.769231-78.769231-78.769231l-866.461538 0q-78.769231 0-78.769231 78.769231l0 866.461538q0 78.769231 78.769231 78.769231ZM208.935385 696.516923h610.461538v-118.153846h-610.461538zM565.563077 440.516923h273.526154v-118.153846H565.563077zM565.563077 184.516923h273.526154v-118.153846H565.563077zM554.929231 152.024615h-238.276923a6.301538 6.301538 0 0 0-6.301539 6.301539v193.772308h244.578462a29.538462 29.538462 0 0 1 0 59.076923H310.350769v146.510769a29.538462 29.538462 0 0 1-59.076923 0v-399.36a65.378462 65.378462 0 0 1 65.378462-65.378462h238.276923a29.538462 29.538462 0 1 1 0 59.076923zM797.538462 285.538462H594.313846a68.923077 68.923077 0 0 0-68.923077 68.923076v55.138462a68.923077 68.923077 0 0 0 68.923077 68.923077H797.538462a68.923077 68.923077 0 0 0 68.923076-68.923077v-55.729231A68.923077 68.923077 0 0 0 797.538462 285.538462z m-203.224616 133.907692a9.846154 9.846154 0 0 1-9.846154-9.846154v-55.729231a9.846154 9.846154 0 0 1 9.846154-9.846154H797.538462a9.846154 9.846154 0 0 1 9.846153 9.846154V409.6a9.846154 9.846154 0 0 1-9.846153 9.846154zM797.538462 25.6H594.313846a68.923077 68.923077 0 0 0-68.923077 68.923077v55.729231a68.923077 68.923077 0 0 0 68.923077 68.923077H797.538462a68.923077 68.923077 0 0 0 68.923076-68.923077v-55.729231a68.923077 68.923077 0 0 0-68.923076-68.923077z m-203.224616 134.498462a9.846154 9.846154 0 0 1-9.846154-9.846154v-55.729231a9.846154 9.846154 0 0 1 9.846154-9.846154H797.538462a9.846154 9.846154 0 0 1 9.846153 9.846154v55.729231a9.846154 9.846154 0 0 1-9.846153 9.846154zM797.538462 539.569231h-571.076924A68.923077 68.923077 0 0 0 157.538462 608.492308v64.984615a68.923077 68.923077 0 0 0 68.923076 68.923077h571.076924a68.923077 68.923077 0 0 0 68.923076-68.923077v-64.984615a68.923077 68.923077 0 0 0-68.923076-68.923077z m-571.076924 143.753846a9.846154 9.846154 0 0 1-9.846153-9.846154v-64.984615a9.846154 9.846154 0 0 1 9.846153-9.846154h571.076924a9.846154 9.846154 0 0 1 9.846153 9.846154v64.984615a9.846154 9.846154 0 0 1-9.846153 9.846154z"  horiz-adv-x="1024" />

    
    <glyph glyph-name="xitongliebiao1" unicode="&#59053;" d="M0 896m78.769231 0l866.461538 0q78.769231 0 78.769231-78.769231l0-866.461538q0-78.769231-78.769231-78.769231l-866.461538 0q-78.769231 0-78.769231 78.769231l0 866.461538q0 78.769231 78.769231 78.769231ZM157.735385 694.547692h669.538461v-472.615384h-669.538461zM774.892308 25.6H209.329231a29.538462 29.538462 0 0 0 0 59.076923h565.563077a29.538462 29.538462 0 1 0 0-59.076923zM856.812308 174.08h-728.615385A29.538462 29.538462 0 0 0 98.461538 203.618462V712.861538a29.538462 29.538462 0 0 0 29.538462 29.538462h728.615385A29.538462 29.538462 0 0 0 886.153846 712.861538v-509.243076a29.538462 29.538462 0 0 0-29.341538-29.538462zM157.538462 233.156923h669.538461V683.323077H157.538462zM748.307692 507.470769H433.230769a29.538462 29.538462 0 0 0 0 59.076923h315.076923a29.538462 29.538462 0 0 0 0-59.076923zM275.889231 537.009231m-39.384616 0a39.384615 39.384615 0 1 1 78.769231 0 39.384615 39.384615 0 1 1-78.769231 0ZM748.307692 349.932308H433.230769a29.538462 29.538462 0 0 0 0 59.076923h315.076923a29.538462 29.538462 0 0 0 0-59.076923zM275.889231 379.470769m-39.384616 0a39.384615 39.384615 0 1 1 78.769231 0 39.384615 39.384615 0 1 1-78.769231 0Z"  horiz-adv-x="1024" />

    
    <glyph glyph-name="yingyongzhongxin3" unicode="&#59046;" d="M269.013333 572.16h586.88a74.666667 74.666667 0 0 1 74.666667 74.666667v85.333333a74.666667 74.666667 0 0 1-74.666667 74.666667H168.106667a74.666667 74.666667 0 0 1-74.666667-74.666667v-85.333333a74.666667 74.666667 0 0 1 74.666667-74.666667h36.906666v-456.746667a74.666667 74.666667 0 0 1 74.666667-74.666666h251.306667v-5.333334a74.666667 74.666667 0 0 1 74.666666-74.666666h250.24a74.666667 74.666667 0 0 1 74.666667 74.666666v74.666667a74.666667 74.666667 0 0 1-74.666667 74.666667H605.653333a74.666667 74.666667 0 0 1-74.666666-74.666667v-5.333333H279.68a10.666667 10.666667 0 0 0-10.666667 10.666666v234.666667h261.973334v-5.333333a74.666667 74.666667 0 0 1 74.666666-74.666667h250.24a74.666667 74.666667 0 0 1 74.666667 74.666667v74.666666a74.666667 74.666667 0 0 1-74.666667 74.666667H605.653333a74.666667 74.666667 0 0 1-74.666666-74.666667v-5.333333H269.013333z m-111.573333 74.666667v85.333333a10.666667 10.666667 0 0 0 10.666667 10.666667h687.786666a10.666667 10.666667 0 0 0 10.666667-10.666667v-85.333333a10.666667 10.666667 0 0 0-10.666667-10.666667H168.106667a10.666667 10.666667 0 0 0-10.666667 10.666667z m437.546667-536.746667a10.666667 10.666667 0 0 0 10.666666 10.666667h250.24a10.666667 10.666667 0 0 0 10.666667-10.666667v-74.666667a10.666667 10.666667 0 0 0-10.666667-10.666666H605.653333a10.88 10.88 0 0 0-10.666666 10.666666z m0 308.48a10.666667 10.666667 0 0 0 10.666666 10.666667h250.24a10.666667 10.666667 0 0 0 10.666667-10.666667v-74.666667a10.666667 10.666667 0 0 0-10.666667-10.666666H605.653333a10.88 10.88 0 0 0-10.666666 10.666666z"  horiz-adv-x="1024" />

    
    <glyph glyph-name="gaojingzhongxin4" unicode="&#59050;" d="M857.173333 30.293333h-65.28v197.12c0 170.666667-125.653333 311.466667-279.893333 311.466667s-279.893333-139.733333-279.893333-311.466667v-197.12H166.826667a32 32 0 0 1 0-64h690.346666a32 32 0 0 1 0 64z m-561.066666 197.12c0 136.533333 96.853333 247.466667 215.893333 247.466667s215.893333-110.933333 215.893333-247.466667v-197.12H296.106667zM601.173333 272.64h-104.746666l61.226666 65.706667a32 32 0 0 1-46.933333 43.733333l-111.36-119.466667a31.786667 31.786667 0 0 1-5.973333-34.56 32.213333 32.213333 0 0 1 29.44-19.413333h104.746666l-60.373333-64a32 32 0 0 1 2.133333-45.866667 31.573333 31.573333 0 0 1 21.333334-8.533333 32 32 0 0 1 23.466666 10.24l110.506667 118.4a32 32 0 0 1-23.466667 53.76zM516.906667 638.08a32 32 0 0 1 32 32V769.706667a32 32 0 1 1-64 0v-99.626667a32 32 0 0 1 32-32zM298.666667 608a32 32 0 0 1 27.733333-16 33.92 33.92 0 0 1 16 4.266667 32 32 0 0 1 10.666667 43.733333l-49.92 85.333333a32 32 0 0 1-55.466667-32zM182.4 456.32a32 32 0 0 1 16 59.733333l-86.4 49.92a32 32 0 1 1-32-55.466666l86.4-49.92a32.64 32.64 0 0 1 16-4.266667zM955.733333 536.96a31.786667 31.786667 0 0 1-42.666666 11.733333l-85.333334-49.706666a32 32 0 0 1 16-59.733334 30.506667 30.506667 0 0 1 16 4.266667l85.333334 49.706667a32 32 0 0 1 10.666666 43.733333zM689.92 586.453333a31.573333 31.573333 0 0 1 16-4.266666 32 32 0 0 1 27.733333 16l49.92 85.333333a32 32 0 1 1-55.466666 32l-49.92-85.333333a32 32 0 0 1 11.733333-43.733334z"  horiz-adv-x="1024" />

    
    <glyph glyph-name="gaojingzhongxin3" unicode="&#59043;" d="M945.230769-128H78.769231a78.769231 78.769231 0 0 0-78.769231 78.769231V817.230769a78.769231 78.769231 0 0 0 78.769231 78.769231h866.461538a78.769231 78.769231 0 0 0 78.769231-78.769231v-866.461538a78.769231 78.769231 0 0 0-78.769231-78.769231zM510.030769 626.215385a30.326154 30.326154 0 0 0-29.538461 29.538461V728.615385a29.538462 29.538462 0 0 0 59.076923 0v-72.861539a30.326154 30.326154 0 0 0-29.538462-29.538461z m-250.092307-167.384616a36.430769 36.430769 0 0 0-13.784616 3.938462l-64.984615 33.476923a29.144615 29.144615 0 1 0 27.569231 51.2l64.984615-33.476923a29.341538 29.341538 0 0 0 11.815385-39.384616 28.356923 28.356923 0 0 0-25.6-15.753846z m96.492307 124.061539a28.16 28.16 0 0 0-23.630769 11.815384l-45.292308 59.076923a29.538462 29.538462 0 1 0 47.261539 35.446154l45.292307-59.076923a28.750769 28.750769 0 0 0-5.907692-41.353846 31.704615 31.704615 0 0 0-17.723077-5.907692z m407.630769-124.061539a28.356923 28.356923 0 0 0-25.6 15.753846 29.341538 29.341538 0 0 0 11.815385 39.384616l64.984615 33.476923a29.144615 29.144615 0 1 0 27.569231-51.2L777.846154 462.769231a19.692308 19.692308 0 0 0-13.784616-3.938462z m-96.492307 124.061539a31.704615 31.704615 0 0 0-17.723077 5.907692 28.750769 28.750769 0 0 0-5.907692 41.353846l45.292307 59.076923a29.538462 29.538462 0 0 0 47.261539-35.446154l-45.292308-59.076923a28.16 28.16 0 0 0-23.630769-11.815384zM701.046154 120.123077V330.830769a185.107692 185.107692 0 0 1-370.215385 0v-210.707692M787.692308 147.692308h-57.107693v185.107692a214.646154 214.646154 0 1 1-429.292307 0V147.692308h-57.107693a29.538462 29.538462 0 1 1 0-59.076923H787.692308a29.538462 29.538462 0 0 1 0 59.076923z m-429.292308 183.138461a155.569231 155.569231 0 1 0 311.138462 0V147.692308H358.4zM490.338462 196.923077a24.024615 24.024615 0 0 0-17.723077 7.876923 25.009231 25.009231 0 0 0 0 35.446154l49.230769 49.230769h-72.861539a25.6 25.6 0 0 0-23.630769 15.753846 24.418462 24.418462 0 0 0 5.907692 27.569231l80.738462 80.738462a25.009231 25.009231 0 0 0 35.446154-35.446154l-37.415385-37.415385h72.861539a25.6 25.6 0 0 0 23.630769-15.753846 24.418462 24.418462 0 0 0-5.907692-27.569231L510.030769 206.769231a26.584615 26.584615 0 0 0-19.692307-9.846154z"  horiz-adv-x="1024" />

    
    <glyph glyph-name="fuwuxiangqing" unicode="&#59044;" d="M0 896m78.769231 0l866.461538 0q78.769231 0 78.769231-78.769231l0-866.461538q0-78.769231-78.769231-78.769231l-866.461538 0q-78.769231 0-78.769231 78.769231l0 866.461538q0 78.769231 78.769231 78.769231ZM195.150769 397.784615h236.307693v-315.076923h-236.307693zM569.304615 279.630769h275.692308v-196.923077h-275.692308zM195.150769 693.169231h256v-177.230769h-256zM417.673846 486.006154H217.993846A60.652308 60.652308 0 0 0 157.538462 546.658462v115.593846a60.652308 60.652308 0 0 0 60.455384 60.652307h199.68a60.455385 60.455385 0 0 0 60.455385-60.652307v-115.593846a60.455385 60.455385 0 0 0-60.455385-60.652308z m-199.68 184.910769a8.664615 8.664615 0 0 1-8.664615-8.664615v-115.593846a8.664615 8.664615 0 0 1 8.664615-8.664616h199.68a8.664615 8.664615 0 0 1 8.664616 8.664616v115.593846a8.664615 8.664615 0 0 1-8.664616 8.664615zM802.264615 45.095385H602.584615a60.652308 60.652308 0 0 0-60.455384 60.652307v144.147693a60.652308 60.652308 0 0 0 60.455384 60.455384h199.68a60.652308 60.652308 0 0 0 60.455385-60.455384v-144.147693a60.652308 60.652308 0 0 0-60.455385-60.652307zM602.584615 258.56a8.664615 8.664615 0 0 1-8.664615-8.664615v-144.147693a8.664615 8.664615 0 0 1 8.664615-8.664615h199.68a8.664615 8.664615 0 0 1 8.664616 8.664615v144.147693a8.664615 8.664615 0 0 1-8.664616 8.664615zM417.673846 45.095385H217.993846A60.652308 60.652308 0 0 0 157.538462 105.747692V377.895385a60.652308 60.652308 0 0 0 60.455384 60.455384h199.68a60.455385 60.455385 0 0 0 60.455385-60.455384v-272.147693a60.455385 60.455385 0 0 0-60.455385-60.652307zM217.993846 386.56a8.664615 8.664615 0 0 1-8.664615-8.664615v-272.147693a8.664615 8.664615 0 0 1 8.664615-8.664615h199.68a8.664615 8.664615 0 0 1 8.664616 8.664615V377.895385a8.664615 8.664615 0 0 1-8.664616 8.664615zM840.467692 670.916923h-275.692307a25.993846 25.993846 0 0 0 0 51.987692h275.692307a25.993846 25.993846 0 1 0 0-51.987692zM840.467692 530.313846h-275.692307a25.993846 25.993846 0 0 0 0 51.987692h275.692307a25.993846 25.993846 0 1 0 0-51.987692zM840.467692 389.710769h-275.692307a25.993846 25.993846 0 0 0 0 51.790769h275.692307a25.993846 25.993846 0 1 0 0-51.790769z"  horiz-adv-x="1024" />

    
    <glyph glyph-name="yingyongtuopu2" unicode="&#59045;" d="M0 896m78.769231 0l866.461538 0q78.769231 0 78.769231-78.769231l0-866.461538q0-78.769231-78.769231-78.769231l-866.461538 0q-78.769231 0-78.769231 78.769231l0 866.461538q0 78.769231 78.769231 78.769231ZM275.692308 582.301538h472.615384v-393.846153H275.692308zM413.538462 700.455385h196.923076v-196.923077H413.538462zM157.538462 267.224615h196.923076v-196.923077H157.538462zM669.538462 267.224615h196.923076v-196.923077H669.538462zM879.261538 311.926154h-85.070769V600.615385a29.538462 29.538462 0 0 1-29.538461 29.538461h-107.716923V714.830769a29.538462 29.538462 0 0 1-29.538462 29.538462H398.178462a29.538462 29.538462 0 0 1-29.538462-29.538462v-85.070769h-109.292308a29.538462 29.538462 0 0 1-29.538461-29.538462v-288.295384H144.738462a29.538462 29.538462 0 0 1-29.538462-29.538462V53.169231a29.538462 29.538462 0 0 1 29.538462-29.538462H374.153846a29.538462 29.538462 0 0 1 29.538462 29.538462v85.070769h216.615384v-85.070769a29.538462 29.538462 0 0 1 29.538462-29.538462h229.415384a29.538462 29.538462 0 0 1 29.538462 29.538462V282.387692a29.538462 29.538462 0 0 1-29.538462 29.538462z m-451.544615 374.153846h170.141539v-170.141538h-170.141539zM344.418462 82.707692H174.276923v170.141539h170.141539z m59.076923 114.609231v85.070769a29.538462 29.538462 0 0 1-29.538462 29.538462h-85.070769V570.683077h78.769231v-85.070769a29.538462 29.538462 0 0 1 29.538461-29.538462h230.203077a29.538462 29.538462 0 0 1 29.538462 29.538462v85.070769h78.76923v-258.756923H649.846154a29.538462 29.538462 0 0 1-29.538462-29.538462v-85.070769z m446.227692-114.609231h-170.141539v170.141539h170.141539z"  horiz-adv-x="1024" />

    
    <glyph glyph-name="pingtaiguanli2" unicode="&#59047;" d="M0 896m78.769231 0l866.461538 0q78.769231 0 78.769231-78.769231l0-866.461538q0-78.769231-78.769231-78.769231l-866.461538 0q-78.769231 0-78.769231 78.769231l0 866.461538q0 78.769231 78.769231 78.769231ZM152.221538 701.44h708.923077v-492.307692h-708.923077zM836.923077 743.384615h-649.846154a68.923077 68.923077 0 0 1-68.923077-68.923077v-430.670769a68.923077 68.923077 0 0 1 68.923077-68.923077h295.384615v-89.206154H228.824615a29.538462 29.538462 0 1 1 0-59.076923h565.563077a29.538462 29.538462 0 0 1 0 59.076923H541.144615v89.206154h295.384616a68.923077 68.923077 0 0 1 68.923077 68.923077V674.461538a68.923077 68.923077 0 0 1-68.529231 68.923077z m9.846154-499.593846a10.043077 10.043077 0 0 0-9.846154-9.846154h-649.846154a10.043077 10.043077 0 0 0-9.846154 9.846154V674.461538a10.043077 10.043077 0 0 0 9.846154 9.846154h649.846154a10.043077 10.043077 0 0 0 9.846154-9.846154zM572.652308 317.44a29.538462 29.538462 0 0 0-29.538462 29.538462V587.815385a29.538462 29.538462 0 1 0 59.076923 0v-240.836923a29.538462 29.538462 0 0 0-29.538461-29.538462zM693.76 317.44a29.538462 29.538462 0 0 0-29.538462 29.538462v120.910769a29.538462 29.538462 0 0 0 59.076924 0v-120.910769a29.538462 29.538462 0 0 0-29.538462-29.538462zM330.24 317.44a29.538462 29.538462 0 0 0-29.538462 29.538462v190.424615a29.538462 29.538462 0 0 0 59.076924 0v-190.424615a29.538462 29.538462 0 0 0-29.538462-29.538462zM451.347692 317.44a29.538462 29.538462 0 0 0-29.538461 29.538462v83.101538a29.538462 29.538462 0 1 0 59.076923 0v-83.101538a29.538462 29.538462 0 0 0-29.538462-29.538462z"  horiz-adv-x="1024" />

    
    <glyph glyph-name="weifuwukaifa" unicode="&#59048;" d="M945.230769-128H78.769231a78.769231 78.769231 0 0 0-78.769231 78.769231V817.230769a78.769231 78.769231 0 0 0 78.769231 78.769231h866.461538a78.769231 78.769231 0 0 0 78.769231-78.769231v-866.461538a78.769231 78.769231 0 0 0-78.769231-78.769231zM249.698462 542.916923m-39.384616 0a39.384615 39.384615 0 1 1 78.769231 0 39.384615 39.384615 0 1 1-78.769231 0ZM791.236923 552.763077m-49.230769 0a49.230769 49.230769 0 1 1 98.461538 0 49.230769 49.230769 0 1 1-98.461538 0ZM771.544615 237.686154m-49.230769 0a49.230769 49.230769 0 1 1 98.461539 0 49.230769 49.230769 0 1 1-98.461539 0ZM515.544615 80.147692m-49.230769 0a49.230769 49.230769 0 1 1 98.461539 0 49.230769 49.230769 0 1 1-98.461539 0ZM259.544615 237.686154m-49.230769 0a49.230769 49.230769 0 1 1 98.461539 0 49.230769 49.230769 0 1 1-98.461539 0ZM505.698462 385.378462m-98.461539 0a98.461538 98.461538 0 1 1 196.923077 0 98.461538 98.461538 0 1 1-196.923077 0ZM201.058462 467.889231a85.661538 85.661538 0 0 1 98.461538 9.255384l20.873846-12.20923a28.947692 28.947692 0 0 1 28.947692 50.215384l-21.267692 12.012308a86.055385 86.055385 0 1 1-167.975384-7.089231 89.6 89.6 0 0 1 40.96-52.184615z m18.510769 88.812307a28.356923 28.356923 0 0 0 24.615384 14.375385 26.584615 26.584615 0 0 0 14.178462-3.938461 28.356923 28.356923 0 0 0-28.356923-49.23077 28.947692 28.947692 0 0 0-13.390769 17.329231 27.175385 27.175385 0 0 0 2.953846 21.464615z m321.378461-397.587692v24.418462a28.947692 28.947692 0 0 1-57.895384 0v-24.615385a86.252308 86.252308 0 1 1 57.895384 0zM512 49.230769a28.356923 28.356923 0 1 0 28.356923 28.356923A28.553846 28.553846 0 0 0 512 49.230769z m177.230769 411.175385a29.538462 29.538462 0 0 1 14.375385 3.741538l21.070769 12.209231a86.843077 86.843077 0 0 1 33.083077-17.723077 89.403077 89.403077 0 0 1 22.646154-2.953846 85.267692 85.267692 0 0 1 42.929231 11.618462 86.252308 86.252308 0 0 1-86.055385 149.464615 85.070769 85.070769 0 0 1-39.384615-52.578462 82.707692 82.707692 0 0 1-1.181539-38.006153l-21.070769-12.012308a28.750769 28.750769 0 0 1 13.587692-53.169231z m63.606154 89.009231a27.569231 27.569231 0 0 0 13.193846 17.132307 28.16 28.16 0 0 0 39.384616-10.043077 28.356923 28.356923 0 0 0-49.033847-28.553846 28.750769 28.750769 0 0 0-2.953846 21.661539zM812.701538 326.695385a96.689231 96.689231 0 0 1-114.018461-12.996923l-56.123077 32.295384A139.618462 139.618462 0 0 1 649.846154 387.938462a137.846154 137.846154 0 0 1-108.701539 133.907692v64.590769a97.083077 97.083077 0 1 1-57.895384 0V521.846154a137.846154 137.846154 0 0 1-107.913846-133.710769 139.618462 139.618462 0 0 1 6.498461-41.944616l-55.926154-32.295384a97.083077 97.083077 0 0 1-150.055384-119.729231 96.295385 96.295385 0 0 1 59.076923-45.292308 92.356923 92.356923 0 0 1 25.206154-3.347692 96.098462 96.098462 0 0 1 48.443077 12.996923A98.461538 98.461538 0 0 1 354.461538 263.876923l56.123077 32.492308a136.073846 136.073846 0 0 1 202.83077 0L669.538462 263.68a92.16 92.16 0 0 1 0-46.276923 97.28 97.28 0 0 1 187.667692 50.609231 95.113846 95.113846 0 0 1-45.095385 59.076923z m-532.676923-118.153847a39.384615 39.384615 0 0 0-29.932307-3.741538 37.809231 37.809231 0 0 0-23.827693 18.313846 39.384615 39.384615 0 1 0 53.76-14.572308zM512 718.769231a39.384615 39.384615 0 1 0-39.384615-39.384616 39.384615 39.384615 0 0 0 39.384615 39.384616z m0-409.403077a78.769231 78.769231 0 1 0 78.769231 78.769231 78.769231 78.769231 0 0 0-78.769231-79.36z m286.129231-86.055385a39.384615 39.384615 0 0 0-53.76-14.572307 39.384615 39.384615 0 0 0-18.313846 23.827692 39.384615 39.384615 0 0 0 57.501538 44.504615 39.384615 39.384615 0 0 0 18.313846-24.024615 39.384615 39.384615 0 0 0-3.544615-30.326154z"  horiz-adv-x="1024" />

    
    <glyph glyph-name="jichengzhongxin" unicode="&#59049;" d="M945.230769-128H78.769231a78.769231 78.769231 0 0 0-78.769231 78.769231V817.230769a78.769231 78.769231 0 0 0 78.769231 78.769231h866.461538a78.769231 78.769231 0 0 0 78.769231-78.769231v-866.461538a78.769231 78.769231 0 0 0-78.769231-78.769231zM157.538462 738.461538m39.581538 0l629.76 0q39.581538 0 39.581538-39.581538l0-629.76q0-39.581538-39.581538-39.581538l-629.76 0q-39.581538 0-39.581538 39.581538l0 629.76q0 39.581538 39.581538 39.581538ZM827.076923 0H196.923077A69.12 69.12 0 0 0 128 68.923077V699.076923A69.12 69.12 0 0 0 196.923077 768h630.153846a69.12 69.12 0 0 0 68.923077-68.923077v-630.153846a69.12 69.12 0 0 0-68.923077-68.923077z m-630.153846 708.923077a10.043077 10.043077 0 0 1-9.846154-9.846154v-630.153846a10.043077 10.043077 0 0 1 10.043077-10.043077H827.076923a10.043077 10.043077 0 0 1 9.846154 10.043077V699.076923a10.043077 10.043077 0 0 1-9.846154 9.846154zM547.446154 384h166.990769a35.643077 35.643077 0 0 1 35.446154 35.446154v166.990769a35.643077 35.643077 0 0 1-35.446154 35.446154H309.563077a35.643077 35.643077 0 0 1-35.446154-35.446154v-404.873846a35.643077 35.643077 0 0 1 35.446154-35.446154h166.990769a35.643077 35.643077 0 0 1 35.446154 35.446154V348.553846a35.643077 35.643077 0 0 0 35.446154 35.446154zM574.030769 321.969231m39.384616 0l97.083077 0q39.384615 0 39.384615-39.384616l0-97.083077q0-39.384615-39.384615-39.384615l-97.083077 0q-39.384615 0-39.384616 39.384615l0 97.083077q0 39.384615 39.384616 39.384616Z"  horiz-adv-x="1024" />

    
    <glyph glyph-name="yingyongzhongxin2" unicode="&#59042;" d="M0 896m78.769231 0l866.461538 0q78.769231 0 78.769231-78.769231l0-866.461538q0-78.769231-78.769231-78.769231l-866.461538 0q-78.769231 0-78.769231 78.769231l0 866.461538q0 78.769231 78.769231 78.769231ZM166.596923 689.230769m39.384615 0l185.501539 0q39.384615 0 39.384615-39.384615l0-185.501539q0-39.384615-39.384615-39.384615l-185.501539 0q-39.384615 0-39.384615 39.384615l0 185.501539q0 39.384615 39.384615 39.384615ZM391.483077 395.421538h-185.501539A68.923077 68.923077 0 0 0 137.846154 464.344615V649.846154A68.923077 68.923077 0 0 0 205.981538 718.769231h185.501539a68.923077 68.923077 0 0 0 68.923077-68.923077v-185.501539a68.923077 68.923077 0 0 0-68.923077-68.923077zM205.981538 659.692308a9.846154 9.846154 0 0 1-9.846153-9.846154v-185.501539a9.846154 9.846154 0 0 1 9.846153-9.846153h185.501539a9.846154 9.846154 0 0 1 9.846154 9.846153V649.846154a9.846154 9.846154 0 0 1-9.846154 9.846154zM685.101152 743.976962m27.849129-27.849128l131.169396-131.169396q27.849129-27.849129 0-55.698257l-131.169396-131.169396q-27.849129-27.849129-55.698257 0l-131.169396 131.169396q-27.849129 27.849129 0 55.698257l131.169396 131.169396q27.849129 27.849129 55.698257 0ZM685.095385 357.021538a68.726154 68.726154 0 0 0-48.836923 19.692308l-131.15077 131.150769a69.12 69.12 0 0 0 0 97.476923l131.15077 131.15077a70.695385 70.695385 0 0 0 97.476923 0l131.150769-131.15077a68.726154 68.726154 0 0 0 0-97.476923l-131.150769-131.150769a68.529231 68.529231 0 0 0-48.64-19.692308z m0 341.07077a9.649231 9.649231 0 0 1-7.089231-2.756923l-131.150769-131.15077a10.043077 10.043077 0 0 1 0-13.981538l131.150769-131.150769a9.846154 9.846154 0 0 1 13.981538 0l131.15077 131.150769a9.846154 9.846154 0 0 1 0 13.981538l-131.15077 131.15077a9.452308 9.452308 0 0 1-6.892307 2.756923zM166.596923 302.670769m39.384615 0l185.501539 0q39.384615 0 39.384615-39.384615l0-185.501539q0-39.384615-39.384615-39.384615l-185.501539 0q-39.384615 0-39.384615 39.384615l0 185.501539q0 39.384615 39.384615 39.384615ZM391.483077 8.861538h-185.501539A68.923077 68.923077 0 0 0 137.846154 77.784615v185.501539a68.923077 68.923077 0 0 0 68.923077 68.923077h185.501538a68.923077 68.923077 0 0 0 68.923077-68.923077v-185.501539a68.923077 68.923077 0 0 0-69.710769-68.923077z m-185.501539 264.27077a9.846154 9.846154 0 0 1-9.846153-9.846154v-185.501539a9.846154 9.846154 0 0 1 9.846153-9.846153h185.501539a9.846154 9.846154 0 0 1 9.846154 9.846153v185.501539a9.846154 9.846154 0 0 1-9.846154 9.846154zM552.96 302.670769m39.384615 0l185.501539 0q39.384615 0 39.384615-39.384615l0-185.501539q0-39.384615-39.384615-39.384615l-185.501539 0q-39.384615 0-39.384615 39.384615l0 185.501539q0 39.384615 39.384615 39.384615ZM777.846154 8.861538h-185.501539a68.923077 68.923077 0 0 0-68.923077 68.923077v185.501539a68.923077 68.923077 0 0 0 68.923077 68.923077h185.501539a68.923077 68.923077 0 0 0 68.923077-68.923077v-185.501539a68.923077 68.923077 0 0 0-68.923077-68.923077z m-185.501539 264.27077a9.846154 9.846154 0 0 1-9.846153-9.846154v-185.501539a9.846154 9.846154 0 0 1 9.846153-9.846153h185.501539a10.043077 10.043077 0 0 1 9.846154 9.846153v185.501539a9.846154 9.846154 0 0 1-9.846154 9.846154z"  horiz-adv-x="1024" />

    
    <glyph glyph-name="jixiancaiji" unicode="&#59435;" d="M902.4 503.893333v6.4 1.28a24.96 24.96 0 0 1-2.986667 7.466667 32.213333 32.213333 0 0 1-14.293333 13.013333l-129.706667 74.88a32 32 0 1 1-32-55.466666l84.266667-48.64-294.4-170.666667-294.4 170.666667 78.08 45.013333a32 32 0 0 1-32 55.466667l-124.8-71.253334a32.213333 32.213333 0 0 1-14.293333-13.013333 24.96 24.96 0 0 1-2.986667-7.466667v-316.8a31.573333 31.573333 0 0 1 16-27.733333l358.4-207.146667h1.066667l5.546666-2.133333h1.92a26.666667 26.666667 0 0 1 14.933334 0h1.92l5.546666 2.133333h1.066667l358.4 207.146667a31.573333 31.573333 0 0 1 16 27.733333V503.893333zM185.6 448l294.4-170.666667v-234.666666L185.6 213.333333z m358.4-405.333333V277.333333l294.4 170.666667v-234.666667zM489.386667 442.026667a32 32 0 0 1 45.226666 0l116.693334 116.693333a32 32 0 0 1-45.226667 45.226667L544 541.866667V780.373333a32 32 0 0 1-64 0V541.866667l-62.08 62.08a32 32 0 0 1-45.226667-45.226667z"  horiz-adv-x="1024" />

    
    <glyph glyph-name="devopscaisetabtubiao_huaban1fuben59" unicode="&#59041;" d="M0 896m78.769231 0l866.461538 0q78.769231 0 78.769231-78.769231l0-866.461538q0-78.769231-78.769231-78.769231l-866.461538 0q-78.769231 0-78.769231 78.769231l0 866.461538q0 78.769231 78.769231 78.769231ZM404.676923 500.184615H177.230769a68.923077 68.923077 0 0 0-68.923077 68.923077V701.046154A68.923077 68.923077 0 0 0 177.230769 769.969231h227.446154a68.923077 68.923077 0 0 0 68.923077-68.923077v-131.938462a68.923077 68.923077 0 0 0-68.923077-68.923077zM177.230769 710.892308a9.846154 9.846154 0 0 1-9.846154-9.846154v-131.938462a9.846154 9.846154 0 0 1 9.846154-9.846154h227.446154a10.043077 10.043077 0 0 1 9.846154 9.846154V701.046154a10.043077 10.043077 0 0 1-9.846154 9.846154zM842.436923-1.969231H615.187692a69.12 69.12 0 0 0-68.923077 68.923077v164.233846a68.923077 68.923077 0 0 0 68.923077 68.923077h227.249231a68.923077 68.923077 0 0 0 68.923077-68.923077v-164.233846a69.12 69.12 0 0 0-68.923077-68.923077zM615.187692 241.033846a9.846154 9.846154 0 0 1-9.846154-9.846154v-164.233846a9.846154 9.846154 0 0 1 9.846154-9.846154h227.249231a9.846154 9.846154 0 0 1 9.846154 9.846154v164.233846a9.846154 9.846154 0 0 1-9.846154 9.846154zM404.676923-1.969231H177.230769a69.12 69.12 0 0 0-68.923077 68.923077V377.107692a69.12 69.12 0 0 0 68.923077 68.923077h227.446154a69.12 69.12 0 0 0 68.923077-68.923077V66.953846a69.12 69.12 0 0 0-68.923077-68.923077zM177.230769 386.953846a9.846154 9.846154 0 0 1-9.846154-9.846154V66.953846a9.846154 9.846154 0 0 1 9.846154-9.846154h227.446154a10.043077 10.043077 0 0 1 9.846154 9.846154V377.107692a10.043077 10.043077 0 0 1-9.846154 9.846154zM886.153846 710.892308H571.076923a29.538462 29.538462 0 0 0 0 59.076923h315.076923a29.538462 29.538462 0 0 0 0-59.076923zM886.153846 550.596923H571.076923a29.538462 29.538462 0 0 0 0 59.076923h315.076923a29.538462 29.538462 0 0 0 0-59.076923zM886.153846 390.498462H571.076923a29.538462 29.538462 0 1 0 0 59.076923h315.076923a29.538462 29.538462 0 0 0 0-59.076923z"  horiz-adv-x="1024" />

    
    <glyph glyph-name="mima" unicode="&#59149;" d="M657.066667 522.666667L477.866667 341.333333l-91.733334 98.133334c-12.8 12.8-32 12.8-44.8 2.133333-12.8-12.8-12.8-32-2.133333-44.8l115.2-121.6c6.4-6.4 14.933333-10.666667 23.466667-10.666667 8.533333 0 17.066667 4.266667 23.466666 10.666667l202.666667 206.933333c12.8 12.8 12.8 32 0 44.8-14.933333 8.533333-34.133333 8.533333-46.933333-4.266666zM829.866667 669.866667L544 795.733333c-21.333333 8.533333-42.666667 8.533333-64 0L194.133333 669.866667c-27.733333-10.666667-44.8-38.4-44.8-68.266667V405.333333c0-142.933333 72.533333-273.066667 192-349.866666l136.533334-87.466667c10.666667-6.4 21.333333-10.666667 34.133333-10.666667 10.666667 0 23.466667 4.266667 34.133333 10.666667l136.533334 87.466667c119.466667 76.8 192 206.933333 192 349.866666v196.266667c0 29.866667-17.066667 57.6-44.8 68.266667zM810.666667 407.466667c0-121.6-59.733333-230.4-162.133334-296.533334L512 23.466667l-136.533333 87.466666c-102.4 64-162.133333 174.933333-162.133334 294.4v196.266667c0 4.266667 2.133333 8.533333 6.4 10.666667l285.866667 125.866666c2.133333 0 4.266667 2.133333 6.4 2.133334 2.133333 0 4.266667 0 6.4-2.133334l285.866667-125.866666c4.266667-2.133333 6.4-6.4 6.4-10.666667v-194.133333z"  horiz-adv-x="1024" />

    
    <glyph glyph-name="sz" unicode="&#59150;" d="M812.8 684.8C729.6 768 620.8 810.666667 512 810.666667S294.4 768 211.2 684.8c-166.4-166.4-166.4-437.333333 0-603.733333C294.4 0 403.2-42.666667 512-42.666667s217.6 42.666667 300.8 125.866667c166.4 166.4 166.4 435.2 0 601.6zM768 128c-68.266667-68.266667-160-106.666667-256-106.666667s-187.733333 38.4-256 106.666667c-140.8 140.8-140.8 371.2 0 512 68.266667 68.266667 160 106.666667 256 106.666667s187.733333-38.4 256-106.666667c140.8-140.8 140.8-371.2 0-512zM541.866667 524.8c-17.066667 17.066667-42.666667 17.066667-59.733334 0l-110.933333-110.933333c-17.066667-17.066667-17.066667-42.666667 0-59.733334l110.933333-110.933333c17.066667-17.066667 42.666667-17.066667 59.733334 0l110.933333 110.933333c17.066667 17.066667 17.066667 42.666667 0 59.733334l-110.933333 110.933333z"  horiz-adv-x="1024" />

    
    <glyph glyph-name="keycloak" unicode="&#59151;" d="M691.2 349.866667h-32v49.066666c0 40.533333-14.933333 76.8-42.666667 106.666667-27.733333 27.733333-64 44.8-102.4 44.8-78.933333 0-145.066667-68.266667-145.066666-151.466667v-49.066666h-36.266667c-29.866667 0-53.333333-23.466667-53.333333-53.333334v-260.266666c0-29.866667 23.466667-53.333333 53.333333-53.333334h358.4c29.866667 0 53.333333 23.466667 53.333333 53.333334V296.533333c0 29.866667-23.466667 53.333333-53.333333 53.333334z m-268.8 49.066666c0 53.333333 40.533333 98.133333 91.733333 98.133334 23.466667 0 46.933333-10.666667 64-27.733334 17.066667-19.2 27.733333-42.666667 27.733334-68.266666v-49.066667h-181.333334v46.933333z m268.8-362.666666H332.8V296.533333h358.4v-260.266666zM514.133333 96c14.933333 0 25.6 12.8 25.6 25.6v87.466667c0 14.933333-12.8 27.733333-25.6 27.733333s-25.6-12.8-25.6-27.733333v-87.466667c0-12.8 10.666667-25.6 25.6-25.6zM825.6 501.333333C810.666667 659.2 676.266667 785.066667 512 785.066667c-162.133333 0-296.533333-123.733333-313.6-281.6h-2.133333c-87.466667-19.2-153.6-98.133333-153.6-192 0-89.6 61.866667-164.266667 142.933333-185.6 2.133333 0 6.4-2.133333 10.666667-2.133334 17.066667 0 32 14.933333 32 32 0 14.933333-8.533333 25.6-21.333334 29.866667-59.733333 14.933333-100.266667 66.133333-100.266666 125.866667 0 57.6 38.4 106.666667 89.6 123.733333h2.133333c12.8 4.266667 25.6 6.4 40.533333 6.4 8.533333 0 14.933333 0 23.466667-2.133333h2.133333c0 8.533333-2.133333 19.2-2.133333 29.866666 0 12.8 0 23.466667 2.133333 36.266667 14.933333 121.6 121.6 215.466667 247.466667 215.466667s232.533333-93.866667 249.6-215.466667c2.133333-10.666667 2.133333-23.466667 2.133333-36.266667 0-10.666667 0-19.2-2.133333-29.866666 8.533333 2.133333 14.933333 2.133333 23.466667 2.133333 14.933333 0 27.733333-2.133333 40.533333-6.4 53.333333-17.066667 89.6-66.133333 89.6-123.733333 0-59.733333-40.533333-110.933333-96-125.866667-12.8-4.266667-23.466667-17.066667-23.466667-29.866667 0-17.066667 14.933333-32 32-32 4.266667 0 6.4 0 10.666667 2.133334 81.066667 23.466667 140.8 98.133333 140.8 185.6 2.133333 93.866667-66.133333 170.666667-153.6 189.866666z"  horiz-adv-x="1024" />

    
    <glyph glyph-name="ldap" unicode="&#59152;" d="M787.2 386.133333V682.666667c0 40.533333-34.133333 74.666667-74.666667 74.666666H298.666667c-40.533333 0-74.666667-34.133333-74.666667-74.666666v-294.4c0-17.066667 14.933333-32 32-32s32 14.933333 32 32V682.666667c0 6.4 4.266667 10.666667 10.666667 10.666666h413.866666c6.4 0 10.666667-4.266667 10.666667-10.666666v-294.4c0-17.066667 14.933333-32 32-32s32 12.8 32 29.866666zM394.666667 552.533333H618.666667c17.066667 0 32 14.933333 32 32s-14.933333 32-32 32H394.666667c-17.066667 0-32-14.933333-32-32s14.933333-32 32-32zM394.666667 424.533333H618.666667c17.066667 0 32 14.933333 32 32s-14.933333 32-32 32H394.666667c-17.066667 0-32-14.933333-32-32s14.933333-32 32-32zM245.333333 68.266667h-106.666666V256c0 10.666667-2.133333 19.2-6.4 23.466667-4.266667 4.266667-10.666667 8.533333-19.2 8.533333s-14.933333-2.133333-19.2-8.533333c-6.4-4.266667-8.533333-10.666667-8.533334-21.333334v-200.533333c0-10.666667 2.133333-19.2 8.533334-25.6 4.266667-4.266667 12.8-8.533333 25.6-8.533333h125.866666c8.533333 0 14.933333 2.133333 19.2 6.4 4.266667 4.266667 6.4 8.533333 6.4 14.933333 0 6.4-2.133333 10.666667-6.4 14.933333-4.266667 6.4-10.666667 8.533333-19.2 8.533334zM503.466667 155.733333c0 46.933333-12.8 83.2-40.533334 104.533334-10.666667 8.533333-21.333333 14.933333-34.133333 19.2-12.8 4.266667-27.733333 4.266667-44.8 4.266666h-68.266667c-10.666667 0-19.2-2.133333-25.6-8.533333-4.266667-4.266667-8.533333-12.8-8.533333-25.6v-189.866667c0-8.533333 0-14.933333 2.133333-21.333333 2.133333-4.266667 4.266667-8.533333 8.533334-12.8 4.266667-2.133333 12.8-4.266667 21.333333-4.266667H384c12.8 0 23.466667 0 32 2.133334 8.533333 2.133333 19.2 4.266667 25.6 8.533333 8.533333 4.266667 14.933333 8.533333 23.466667 14.933333 8.533333 8.533333 17.066667 17.066667 21.333333 27.733334 6.4 10.666667 10.666667 21.333333 12.8 34.133333 4.266667 17.066667 4.266667 32 4.266667 46.933333z m-78.933334-76.8c-4.266667-4.266667-8.533333-6.4-12.8-8.533333-4.266667-2.133333-10.666667-2.133333-14.933333-4.266667h-61.866667v177.066667h34.133334c17.066667 0 29.866667-2.133333 40.533333-4.266667 10.666667-4.266667 21.333333-10.666667 27.733333-23.466666 8.533333-12.8 10.666667-32 10.666667-57.6 2.133333-38.4-6.4-64-23.466667-78.933334zM652.8 238.933333c-2.133333 8.533333-6.4 14.933333-8.533333 19.2-2.133333 4.266667-4.266667 10.666667-8.533334 14.933334-2.133333 4.266667-6.4 8.533333-12.8 10.666666-4.266667 2.133333-10.666667 4.266667-19.2 4.266667-6.4 0-12.8-2.133333-17.066666-4.266667-4.266667-2.133333-8.533333-6.4-12.8-10.666666-2.133333-4.266667-6.4-10.666667-8.533334-17.066667-2.133333-6.4-4.266667-12.8-6.4-17.066667l-66.133333-168.533333c0-6.4-2.133333-10.666667-2.133333-14.933333-2.133333-4.266667-2.133333-6.4-2.133334-10.666667 0-6.4 2.133333-10.666667 8.533334-17.066667 4.266667-4.266667 10.666667-6.4 17.066666-6.4 8.533333 0 12.8 2.133333 17.066667 6.4 4.266667 4.266667 8.533333 12.8 12.8 25.6l12.8 34.133334H661.333333l12.8-32c2.133333-4.266667 4.266667-8.533333 6.4-14.933334s4.266667-8.533333 6.4-10.666666l6.4-6.4c2.133333-2.133333 6.4-2.133333 10.666667-2.133334 6.4 0 12.8 2.133333 19.2 8.533334 4.266667 4.266667 8.533333 10.666667 8.533333 17.066666 0 6.4-2.133333 14.933333-8.533333 27.733334l-70.4 164.266666z m-85.333333-113.066666l38.4 106.666666 38.4-106.666666h-76.8zM932.266667 241.066667c-4.266667 10.666667-10.666667 19.2-17.066667 25.6-8.533333 6.4-17.066667 12.8-27.733333 14.933333-10.666667 2.133333-25.6 4.266667-46.933334 4.266667h-68.266666c-10.666667 0-19.2-2.133333-25.6-6.4-4.266667-4.266667-8.533333-12.8-8.533334-25.6v-200.533334c0-10.666667 2.133333-19.2 6.4-23.466666 4.266667-6.4 10.666667-8.533333 19.2-8.533334s12.8 2.133333 19.2 8.533334c4.266667 6.4 6.4 12.8 6.4 23.466666v72.533334h49.066667c32 0 55.466667 6.4 72.533333 21.333333 17.066667 12.8 23.466667 34.133333 23.466667 59.733333 4.266667 12.8 2.133333 23.466667-2.133333 34.133334z m-53.333334-57.6c-4.266667-6.4-10.666667-10.666667-19.2-12.8-8.533333-2.133333-19.2-4.266667-32-4.266667h-36.266666v78.933333h36.266666c23.466667 0 38.4-4.266667 46.933334-10.666666 6.4-6.4 10.666667-17.066667 10.666666-27.733334s-2.133333-19.2-6.4-23.466666z"  horiz-adv-x="1024" />

    
    <glyph glyph-name="paaschanpintubiaogengxin-131" unicode="&#59040;" d="M0 896m78.769231 0l866.461538 0q78.769231 0 78.769231-78.769231l0-866.461538q0-78.769231-78.769231-78.769231l-866.461538 0q-78.769231 0-78.769231 78.769231l0 866.461538q0 78.769231 78.769231 78.769231ZM175.261538 720.147692h673.476924v-673.476923H175.261538zM879.655385-9.846153999999956h-728.615385a29.538462 29.538462 0 0 0-29.538462 29.538462v728.615384A29.538462 29.538462 0 0 0 151.04 777.846154h728.615385a29.538462 29.538462 0 0 0 29.538461-29.538462v-728.615384a29.538462 29.538462 0 0 0-29.538461-29.538462z m-699.076923 59.076923h669.538461V718.769231h-669.538461zM554.732308 384h185.501538a39.384615 39.384615 0 0 1 39.384616 39.384615v185.501539a39.384615 39.384615 0 0 1-39.384616 39.384615H290.461538a39.384615 39.384615 0 0 1-39.384615-39.384615v-449.772308a39.384615 39.384615 0 0 1 39.384615-39.384615h185.501539a39.384615 39.384615 0 0 1 39.384615 39.384615V344.61538499999995a39.384615 39.384615 0 0 0 39.384616 39.384615zM584.270769 315.07692299999997m39.384616 0l116.578461 0q39.384615 0 39.384616-39.384615l0-116.578462q0-39.384615-39.384616-39.384615l-116.578461 0q-39.384615 0-39.384616 39.384615l0 116.578462q0 39.384615 39.384616 39.384615Z"  horiz-adv-x="1025" />

    
    <glyph glyph-name="paaschanpintubiaogengxin_lianluzhuizongfuben3" unicode="&#59039;" d="M906.666667-42.666667h-789.333334A32 32 0 0 0 85.333333-10.666667v789.333334A32 32 0 0 0 117.333333 810.666667h789.333334A32 32 0 0 0 938.666667 778.666667v-789.333334a32 32 0 0 0-32-32zM149.333333 21.333333h725.333334V746.666667H149.333333zM554.666667 384h200.96a42.666667 42.666667 0 0 1 42.666666 42.666667v200.96a42.666667 42.666667 0 0 1-42.666666 42.666666H268.373333a42.666667 42.666667 0 0 1-42.666666-42.666666v-487.253334a42.666667 42.666667 0 0 1 42.666666-42.666666H469.333333a42.666667 42.666667 0 0 1 42.666667 42.666666V341.333333a42.666667 42.666667 0 0 0 42.666667 42.666667zM586.666667 309.333333m42.666666 0l126.293334 0q42.666667 0 42.666666-42.666666l0-126.293334q0-42.666667-42.666666-42.666666l-126.293334 0q-42.666667 0-42.666666 42.666666l0 126.293334q0 42.666667 42.666666 42.666666Z"  horiz-adv-x="1024" />

    
    <glyph glyph-name="quanbushangpin1" unicode="&#59432;" d="M0 896m78.769231 0l866.461538 0q78.769231 0 78.769231-78.769231l0-866.461538q0-78.769231-78.769231-78.769231l-866.461538 0q-78.769231 0-78.769231 78.769231l0 866.461538q0 78.769231 78.769231 78.769231ZM806.203077 66.363077H222.523077l19.692308 454.695385h524.603077l39.384615-454.695385zM752.64 29.538462H271.36a99.446154 99.446154 0 0 0-98.461538 106.92923L196.923077 487.581538A100.036923 100.036923 0 0 0 296.566154 580.923077h430.867692A100.036923 100.036923 0 0 0 827.076923 487.581538l25.009231-351.113846A99.446154 99.446154 0 0 0 752.64 29.538462zM296.566154 521.846154A40.96 40.96 0 0 1 256 482.461538l-25.206154-350.326153A40.763077 40.763077 0 0 1 271.36 88.615385h481.28a40.763077 40.763077 0 0 1 40.566154 43.52L768 482.461538a40.96 40.96 0 0 1-40.566154 39.384616zM687.655385 451.150769a29.538462 29.538462 0 0 0-29.538462 29.538462v52.578461a146.116923 146.116923 0 0 1-292.233846 0v-52.578461a29.538462 29.538462 0 0 0-59.076923 0v52.578461a205.193846 205.193846 0 0 0 410.387692 0v-52.578461a29.538462 29.538462 0 0 0-29.538461-29.538462zM652.406154 341.070769H371.593846a29.538462 29.538462 0 1 0 0 59.076923h280.812308a29.538462 29.538462 0 0 0 0-59.076923zM687.655385 181.76H336.344615a29.538462 29.538462 0 1 0 0 59.076923h351.31077a29.538462 29.538462 0 0 0 0-59.076923z"  horiz-adv-x="1024" />

    
    <glyph glyph-name="huanjingguanli1" unicode="&#59433;" d="M0 896m78.769231 0l866.461538 0q78.769231 0 78.769231-78.769231l0-866.461538q0-78.769231-78.769231-78.769231l-866.461538 0q-78.769231 0-78.769231 78.769231l0 866.461538q0 78.769231 78.769231 78.769231ZM204.8 653.981538h624.246154v-543.310769H204.8zM836.923077 66.363077h-649.846154a29.538462 29.538462 0 0 0-29.538461 29.538461V672.098462a29.538462 29.538462 0 0 0 29.538461 29.538461h649.846154a29.538462 29.538462 0 0 0 29.538461-29.538461v-576.196924a29.538462 29.538462 0 0 0-29.538461-29.538461z m-620.307692 59.076923h590.76923V642.56H216.615385zM836.923077 514.363077h-649.846154a29.538462 29.538462 0 0 0 0 59.076923h649.846154a29.538462 29.538462 0 0 0 0-59.076923zM392.073846 177.033846a29.341538 29.341538 0 0 0-20.873846 8.664616l-111.261538 111.458461a29.341538 29.341538 0 0 0 0 41.747692l111.261538 111.261539A29.538462 29.538462 0 0 0 413.538462 408.418462l-90.387693-90.387693L413.538462 227.643077a29.735385 29.735385 0 0 0-20.873847-50.609231zM631.926154 177.033846A29.735385 29.735385 0 0 0 610.461538 227.643077l90.387693 90.387692L610.461538 408.418462a29.538462 29.538462 0 0 0 41.747693 41.747692l111.261538-111.261539a29.341538 29.341538 0 0 0 0-41.747692l-111.261538-111.458461a29.341538 29.341538 0 0 0-20.283077-8.664616zM474.781538 172.110769a31.310769 31.310769 0 0 0-9.452307 1.378462 29.735385 29.735385 0 0 0-18.707693 37.415384l78.769231 236.307693a29.538462 29.538462 0 1 0 55.926154-18.707693l-78.769231-236.307692a29.538462 29.538462 0 0 0-27.766154-20.086154z"  horiz-adv-x="1024" />

    
    <glyph glyph-name="zujianguanli1" unicode="&#59434;" d="M0 896m78.769231 0l866.461538 0q78.769231 0 78.769231-78.769231l0-866.461538q0-78.769231-78.769231-78.769231l-866.461538 0q-78.769231 0-78.769231 78.769231l0 866.461538q0 78.769231 78.769231 78.769231ZM492.701538 701.636923l-239.655384-141.193846-46.08-42.535385 14.178461-306.60923 271.556923-152.221539 28.356924 341.464615 248.910769 137.649231-277.267693 163.446154zM493.686154 29.538462a63.803077 63.803077 0 0 0-32.098462 8.664615l-251.470769 145.132308A64.590769 64.590769 0 0 0 177.230769 238.867692V529.132308a64.590769 64.590769 0 0 0 32.098462 55.532307l252.258461 145.132308a64 64 0 0 0 64 0l251.47077-145.132308a64 64 0 0 0 32.098461-55.532307v-119.926154a29.538462 29.538462 0 0 0-59.076923 0v119.926154a4.923077 4.923077 0 0 1-2.56 4.332307L496.049231 679.384615a5.513846 5.513846 0 0 1-4.923077 0l-251.470769-145.92a4.923077 4.923077 0 0 1-2.56-4.332307v-290.264616a4.923077 4.923077 0 0 1 2.56-4.332307L491.126154 88.615385a5.513846 5.513846 0 0 1 4.923077 0l49.427692 28.553846a29.538462 29.538462 0 1 0 29.538462-51.2l-49.427693-28.356923a63.606154 63.606154 0 0 0-31.901538-8.073846zM491.52 366.867692L206.966154 517.907692l27.766154 52.381539 257.181538-136.664616 261.316923 136.664616 27.372308-52.381539-289.083077-151.04zM461.902769 400.088615l59.076923 0.393847 2.264616-341.267693-59.076923-0.393846zM816.443077 285.538462h-180.578462a29.538462 29.538462 0 0 0 0 59.076923h180.578462a29.538462 29.538462 0 0 0 0-59.076923zM816.443077 190.818462h-180.578462a29.538462 29.538462 0 1 0 0 59.076923h180.578462a29.538462 29.538462 0 1 0 0-59.076923zM816.443077 95.901538h-180.578462a29.538462 29.538462 0 0 0 0 59.076924h180.578462a29.538462 29.538462 0 0 0 0-59.076924z"  horiz-adv-x="1024" />

    
    <glyph glyph-name="yunyingfenxi" unicode="&#59360;" d="M0 896m78.769231 0l866.461538 0q78.769231 0 78.769231-78.769231l0-866.461538q0-78.769231-78.769231-78.769231l-866.461538 0q-78.769231 0-78.769231 78.769231l0 866.461538q0 78.769231 78.769231 78.769231ZM204.406154 632.123077h626.806154v-414.916923H204.406154zM512 632.123077a29.538462 29.538462 0 0 0-29.538462 29.538461V707.347692a29.538462 29.538462 0 1 0 59.076924 0v-45.686154a29.538462 29.538462 0 0 0-29.538462-29.538461zM651.815385 31.113846a29.735385 29.735385 0 0 0-21.661539 8.664616l-118.153846 118.153846-118.153846-118.153846a29.538462 29.538462 0 1 0-41.747692 41.747692l139.815384 139.815384a29.341538 29.341538 0 0 0 41.747692 0l139.815385-139.815384a29.341538 29.341538 0 0 0 0-41.747692 29.735385 29.735385 0 0 0-21.661538-8.664616zM712.861538 574.424615l-118.153846-27.766153a15.163077 15.163077 0 0 1-7.876923-24.812308l29.735385-29.538462-116.578462-116.578461-64.196923 64.393846a25.009231 25.009231 0 0 1-34.855384 0l-99.84-99.84a25.009231 25.009231 0 0 1 0-34.855385 25.206154 25.206154 0 0 1 17.526153-7.08923 24.418462 24.418462 0 0 1 17.329231 7.08923l82.313846 82.313846 64.393847-64.196923a24.615385 24.615385 0 0 1 34.855384 0l133.710769 133.907693 26.584616-26.584616a15.163077 15.163077 0 0 1 25.403077 7.286154l27.766154 118.153846a15.163077 15.163077 0 0 1-18.116924 18.116923zM836.923077 170.929231h-649.846154a29.538462 29.538462 0 0 0-29.538461 29.538461V661.661538a29.538462 29.538462 0 0 0 29.538461 29.538462h649.846154a29.538462 29.538462 0 0 0 29.538461-29.538462v-461.193846a29.538462 29.538462 0 0 0-29.538461-29.538461z m-620.307692 59.076923h590.76923V632.123077H216.615385z"  horiz-adv-x="1024" />

    
    <glyph glyph-name="yingyongtuopu1" unicode="&#59431;" d="M0 896m78.769231 0l866.461538 0q78.769231 0 78.769231-78.769231l0-866.461538q0-78.769231-78.769231-78.769231l-866.461538 0q-78.769231 0-78.769231 78.769231l0 866.461538q0 78.769231 78.769231 78.769231ZM604.16 688.049231h221.538462v-141.390769H604.16zM604.16 220.553846h221.538462v-141.390769H604.16zM190.818462 454.695385h266.830769v-141.39077H190.818462zM584.073846 120.32H331.027692a29.538462 29.538462 0 0 0-29.538461 29.538462v142.178461a29.538462 29.538462 0 0 0 59.076923 0v-112.64h223.507692a29.538462 29.538462 0 0 0 0-59.076923zM331.027692 445.44a29.538462 29.538462 0 0 0-29.538461 29.538462v143.556923a29.538462 29.538462 0 0 0 29.538461 29.538461h253.046154a29.538462 29.538462 0 0 0 0-59.076923H360.566154v-114.018461a29.538462 29.538462 0 0 0-29.538462-29.538462zM836.923077 499.2H584.073846a29.538462 29.538462 0 0 0-29.538461 29.538462V708.332308A29.538462 29.538462 0 0 0 584.073846 738.461538H836.923077A29.538462 29.538462 0 0 0 866.461538 708.332308v-179.593846a29.538462 29.538462 0 0 0-29.538461-29.538462z m-223.310769 59.076923H807.384615V679.384615h-193.772307zM474.978462 262.498462H187.076923a29.538462 29.538462 0 0 0-29.538461 29.538461v182.941539a29.538462 29.538462 0 0 0 29.538461 29.538461h287.901539a29.538462 29.538462 0 0 0 29.538461-29.538461v-182.941539a29.538462 29.538462 0 0 0-29.538461-29.538461z m-258.363077 59.076923h228.824615v123.864615H216.615385zM836.923077 29.538462H584.073846a29.538462 29.538462 0 0 0-29.538461 29.538461v181.169231a29.538462 29.538462 0 0 0 29.538461 29.538461H836.923077a29.538462 29.538462 0 0 0 29.538461-29.538461v-180.578462A29.538462 29.538462 0 0 0 836.923077 29.538462z m-223.310769 59.076923H807.384615v122.092307h-193.772307z"  horiz-adv-x="1024" />

    
    <glyph glyph-name="zuzhishitu" unicode="&#59359;" d="M0 896m78.769231 0l866.461538 0q78.769231 0 78.769231-78.769231l0-866.461538q0-78.769231-78.769231-78.769231l-866.461538 0q-78.769231 0-78.769231 78.769231l0 866.461538q0 78.769231 78.769231 78.769231ZM196.135385 668.553846h631.335384v-445.636923H196.135385zM836.332308 711.68H187.667692A29.538462 29.538462 0 0 1 157.538462 682.141538v-469.858461a29.538462 29.538462 0 0 1 29.538461-29.538462h649.255385a29.538462 29.538462 0 0 1 29.538461 29.538462V682.141538a29.538462 29.538462 0 0 1-29.538461 29.538462zM807.384615 241.821538H216.615385V652.603077h590.76923zM725.267692 115.396923H298.732308a29.538462 29.538462 0 0 1 0-59.076923h426.535384a29.538462 29.538462 0 0 1 0 59.076923zM691.987692 449.575385h-112.04923a24.615385 24.615385 0 0 1-24.615385-24.615385v-31.507692h-115.593846v44.701538h59.076923A24.615385 24.615385 0 0 1 522.633846 462.769231v118.153846a24.615385 24.615385 0 0 1-24.615384 24.615385h-166.006154A24.615385 24.615385 0 0 1 307.396923 580.923077v-118.153846a24.615385 24.615385 0 0 1 24.615385-24.615385h59.076923v-125.44a24.615385 24.615385 0 1 1 49.230769 0V344.615385h115.003077v-31.507693a24.615385 24.615385 0 0 1 24.615385-24.615384h112.04923a24.615385 24.615385 0 0 1 24.615385 24.615384v112.246154a24.615385 24.615385 0 0 1-24.615385 24.221539z m-334.76923 107.323077H472.615385v-69.513847h-115.987693z m310.153846-219.569231H604.553846v63.015384h62.818462z"  horiz-adv-x="1024" />

    
    <glyph glyph-name="zhipincangku1" unicode="&#59355;" d="M0.590656 896m78.754085 0l866.294944 0q78.754086 0 78.754085-78.754086l0-866.294943q0-78.754086-78.754085-78.754086l-866.294944 0q-78.754086 0-78.754085 78.754086l0 866.294943q0 78.754086 78.754085 78.754086ZM240.987502 526.052682l277.411267 176.999808 277.214382-189.403576v-440.23534H240.987502V526.052682zM187.040954 461.080561a29.532782 29.532782 0 0 0-16.538358 53.946549L495.75697 733.175928a29.335897 29.335897 0 0 0 32.879831 0l324.663718-218.148818a29.532782 29.532782 0 1 0-33.076716-49.024418L511.901557 673.125937 203.579312 466.002692a29.926553 29.926553 0 0 0-16.538358-4.922131zM669.409729 29.508172H354.393386a29.532782 29.532782 0 0 0-29.532782 29.532782v315.016343A29.532782 29.532782 0 0 0 354.393386 403.590079h315.016343a29.532782 29.532782 0 0 0 29.532782-29.532782v-315.016343A29.532782 29.532782 0 0 0 669.409729 29.508172z m-286.074217 59.065564h257.13209V344.524515H383.335512zM757.81119 29.508172h-492.213036a64.57835 64.57835 0 0 0-64.775235 64.57835V519.1617a29.532782 29.532782 0 0 0 59.065564 0v-425.075178a5.709671 5.709671 0 0 1 5.709671-5.512786h492.213036a5.709671 5.709671 0 0 1 5.512786 5.512786V519.1617a29.532782 29.532782 0 0 0 59.065564 0v-425.075178A64.57835 64.57835 0 0 0 757.81119 29.508172zM555.80696 250.216497h-87.810805a29.532782 29.532782 0 0 0 0 59.065564h87.810805a29.532782 29.532782 0 0 0 0-59.065564zM590.655643 484.116132h-157.508171a29.532782 29.532782 0 0 0 0 59.065564h157.508171a29.532782 29.532782 0 0 0 0-59.065564z"  horiz-adv-x="1024" />

    
    <glyph glyph-name="peizhizhongxin2" unicode="&#59356;" d="M945.230769-128H78.769231a78.769231 78.769231 0 0 0-78.769231 78.769231V817.230769a78.769231 78.769231 0 0 0 78.769231 78.769231h866.461538a78.769231 78.769231 0 0 0 78.769231-78.769231v-866.461538a78.769231 78.769231 0 0 0-78.769231-78.769231zM195.347692 670.523077h611.84c11.224615 0 19.692308 7.68 19.692308-3.150769l2.756923-567.532308H195.347692zM536.615385 122.88h-49.23077a25.009231 25.009231 0 0 0-19.692307 10.830769l-13.39077 19.692308a25.796923 25.796923 0 0 1-21.464615 11.421538h-17.132308a24.812308 24.812308 0 0 0-19.692307 10.043077l-36.824616 50.609231a24.615385 24.615385 0 0 0 0 27.963077l10.83077 16.738462a26.190769 26.190769 0 0 1 0 27.56923l-11.421539 18.51077a24.418462 24.418462 0 0 0 0 25.6l29.144615 48.64a24.615385 24.615385 0 0 0 21.07077 12.012307H433.230769a25.6 25.6 0 0 1 19.692308 11.224616l13.390769 19.692307a24.615385 24.615385 0 0 0 19.692308 10.83077h49.230769a24.221538 24.221538 0 0 0 19.692308-10.83077l13.390769-19.692307a25.6 25.6 0 0 1 21.267692-11.224616h29.932308a24.418462 24.418462 0 0 0 22.055385-13.784615l24.024615-48.64a25.009231 25.009231 0 0 0 0-23.827692l-11.421538-18.51077a26.190769 26.190769 0 0 1 0-27.766154l10.633846-16.147692a24.418462 24.418462 0 0 0 1.575384-24.024615l-22.646154-50.609231a24.812308 24.812308 0 0 0-22.252307-14.178462h-29.735385a25.993846 25.993846 0 0 1-20.676923-11.421538l-13.390769-19.692308a24.221538 24.221538 0 0 0-21.070769-11.027692z m-36.036923 49.230769h23.04l6.104615 9.058462a75.027692 75.027692 0 0 0 62.227692 33.083077h14.178462l11.421538 24.221538-2.953846 4.726154a75.027692 75.027692 0 0 0-1.181538 80.344615l4.332307 6.892308-11.224615 22.646154h-14.769231a75.027692 75.027692 0 0 0-62.030769 32.689231l-6.104615 8.861538h-23.236924l-6.104615-8.861538a75.224615 75.224615 0 0 0-61.046154-32.886154h-11.224615l-14.178462-23.827692 3.544616-5.71077a75.421538 75.421538 0 0 0 0-80.147692l-1.575385-2.56 19.692308-26.781538H433.230769a75.421538 75.421538 0 0 0 62.227693-32.886154zM617.550769 330.633846l-11.224615 22.646154H590.769231a75.027692 75.027692 0 0 0-62.030769 32.689231l-6.104616 8.861538H500.184615l-6.104615-8.861538a75.224615 75.224615 0 0 0-62.030769-32.886154h-11.224616l-14.178461-23.827692 3.544615-5.71077a75.421538 75.421538 0 0 0 0-80.147692l-1.575384-2.56 19.692307-26.781538h4.726154a75.421538 75.421538 0 0 0 61.243077-32.886154l6.104615-8.861539h23.04l6.104616 9.058462a75.027692 75.027692 0 0 0 62.227692 33.083077h14.178462l11.421538 24.221538-2.953846 4.726154a75.027692 75.027692 0 0 0-1.181538 80.344615zM512 217.009231a64.393846 64.393846 0 1 0 64.393846 64.393846A64.590769 64.590769 0 0 0 512 217.009231z m0 89.403077a25.009231 25.009231 0 1 1 25.009231-25.009231A25.009231 25.009231 0 0 1 512 306.412308zM819.396923 726.646154H204.603077A66.756923 66.756923 0 0 1 137.846154 659.692308v-551.384616a66.756923 66.756923 0 0 1 66.756923-66.756923h614.793846A66.756923 66.756923 0 0 1 886.153846 108.307692V659.692308a66.756923 66.756923 0 0 1-66.756923 66.953846z m-614.793846-59.076923h614.793846a7.68 7.68 0 0 0 7.68-7.876923v-131.544616H196.923077V659.692308a7.68 7.68 0 0 0 7.68 7.876923z m614.793846-567.138462H204.603077A7.483077 7.483077 0 0 0 196.923077 108.307692V469.267692h630.153846V108.307692a7.68 7.68 0 0 0-7.68-7.876923zM233.353846 594.510769a31.704615 31.704615 0 1 1 31.704616 31.704616 31.704615 31.704615 0 0 1-31.704616-31.704616zM327.876923 594.510769a31.704615 31.704615 0 1 1 31.704615 31.704616 31.704615 31.704615 0 0 1-31.704615-31.704616zM422.596923 594.510769a31.704615 31.704615 0 1 1 31.704615 31.704616 31.704615 31.704615 0 0 1-31.704615-31.704616z"  horiz-adv-x="1024" />

    
    <glyph glyph-name="fuzaijunhengqi1" unicode="&#59357;" d="M0 896m78.769231 0l866.461538 0q78.769231 0 78.769231-78.769231l0-866.461538q0-78.769231-78.769231-78.769231l-866.461538 0q-78.769231 0-78.769231 78.769231l0 866.461538q0 78.769231 78.769231 78.769231ZM481.083077 556.898462l-156.947692-235.126154 34.067692-84.48 76.209231-61.636923 76.20923 41.353846 76.209231-33.673846 85.464616 46.276923 33.083077 109.686154-153.206154 223.901538-71.089231-6.301538zM510.621538 627.2m-76.20923 0a76.209231 76.209231 0 1 1 152.418461 0 76.209231 76.209231 0 1 1-152.418461 0ZM267.618462 270.769231m-76.209231 0a76.209231 76.209231 0 1 1 152.418461 0 76.209231 76.209231 0 1 1-152.418461 0ZM510.621538 140.8m-76.20923 0a76.209231 76.209231 0 1 1 152.418461 0 76.209231 76.209231 0 1 1-152.418461 0ZM756.381538 270.769231m-76.20923 0a76.209231 76.209231 0 1 1 152.418461 0 76.209231 76.209231 0 1 1-152.418461 0ZM510.621538 192a29.538462 29.538462 0 0 0-29.538461 29.538462v324.923076a29.538462 29.538462 0 0 0 59.076923 0v-324.923076a29.538462 29.538462 0 0 0-29.538462-29.538462zM312.910769 307.790769a30.326154 30.326154 0 0 0-16.541538 5.12 29.735385 29.735385 0 0 0-7.68 41.156923l152.221538 223.113846a29.538462 29.538462 0 1 0 48.64-33.28l-152.221538-223.113846a29.341538 29.341538 0 0 0-24.418462-12.996923zM708.923077 306.412308a29.341538 29.341538 0 0 0-24.418462 12.996923L531.692308 543.901538a29.538462 29.538462 0 1 0 48.64 33.28l153.206154-224.492307a29.735385 29.735385 0 0 0-7.68-41.156923 30.916923 30.916923 0 0 0-16.935385-5.12zM439.532308 149.267692a28.750769 28.750769 0 0 0-13.784616 3.544616L324.726154 206.769231a29.538462 29.538462 0 0 0 27.766154 52.184615l100.430769-53.956923a29.341538 29.341538 0 0 0 12.012308-39.384615 29.144615 29.144615 0 0 0-25.403077-16.344616zM581.710769 149.267692a29.538462 29.538462 0 0 0-13.981538 55.729231l103.187692 55.138462a29.538462 29.538462 0 1 0 27.766154-52.184616l-103.187692-55.138461a28.750769 28.750769 0 0 0-13.784616-3.544616zM510.621538 516.923077a110.276923 110.276923 0 1 0 110.08 110.276923 110.276923 110.276923 0 0 0-110.08-110.276923z m0 161.28a51.2 51.2 0 1 1 51.003077-51.003077 51.2 51.2 0 0 1-51.003077 51.003077zM510.621538 30.72a110.276923 110.276923 0 1 0 110.08 110.08 110.276923 110.276923 0 0 0-110.08-110.08z m0 161.28a51.2 51.2 0 1 1 51.003077-51.2 51.2 51.2 0 0 1-51.003077 51.2zM756.381538 160.689231A110.08 110.08 0 1 0 866.461538 270.769231a110.276923 110.276923 0 0 0-110.08-110.08z m0 161.083077A51.003077 51.003077 0 1 1 807.384615 270.769231a51.003077 51.003077 0 0 1-51.003077 51.003077zM267.618462 160.689231a110.08 110.08 0 1 0 110.08 110.08 110.276923 110.276923 0 0 0-110.08-110.08z m0 161.083077a51.003077 51.003077 0 1 1 51.003076-51.003077 51.003077 51.003077 0 0 1-51.003076 51.003077z"  horiz-adv-x="1024" />

    
    <glyph glyph-name="rongqiguanli1" unicode="&#59358;" d="M0 896m78.769231 0l866.461538 0q78.769231 0 78.769231-78.769231l0-866.461538q0-78.769231-78.769231-78.769231l-866.461538 0q-78.769231 0-78.769231 78.769231l0 866.461538q0 78.769231 78.769231 78.769231ZM512 705.772308l-281.206154-165.809231v-310.744615L512 64.787692l282.584615 164.43077V537.403077L512 705.772308zM512 178.018462a28.16 28.16 0 0 0-14.769231 3.938461l-152.812307 88.221539a29.341538 29.341538 0 0 0-14.769231 25.6v177.230769a29.341538 29.341538 0 0 0 14.769231 25.6l152.812307 88.221538a29.341538 29.341538 0 0 0 29.538462 0l152.812307-88.221538a29.341538 29.341538 0 0 0 14.769231-25.6v-177.230769a29.341538 29.341538 0 0 0-14.769231-25.6l-152.812307-88.221539a28.16 28.16 0 0 0-14.769231-3.938461z m-123.273846 134.695384L512 241.624615l123.273846 71.089231v142.572308L512 526.375385l-123.273846-71.089231z m275.692308-16.935384zM822.744615 547.052308a24.418462 24.418462 0 0 1 0 6.498461 8.467692 8.467692 0 0 0 0 0.984616 39.384615 39.384615 0 0 1-2.756923 6.695384 31.113846 31.113846 0 0 1-4.332307 5.710769l-1.181539 0.984616a25.6 25.6 0 0 1-4.529231 3.544615L526.769231 734.523077a29.341538 29.341538 0 0 1-29.538462 0L216.615385 572.061538a25.6 25.6 0 0 1-4.529231-3.544615l-1.181539-0.984615a31.113846 31.113846 0 0 1-4.332307-5.71077 39.384615 39.384615 0 0 1-2.756923-6.695384 8.467692 8.467692 0 0 0 0-0.984616 24.418462 24.418462 0 0 1 0-6.498461v-324.923077a29.341538 29.341538 0 0 1 12.8-26.584615l279.433846-161.28 1.772307-1.181539a28.356923 28.356923 0 0 1 29.538462 0l1.772308 1.181539L807.384615 196.135385a29.341538 29.341538 0 0 1 14.769231 25.403077v324.923076s0.590769 0.393846 0.590769 0.59077zM512 674.855385l222.326154-128.393847-96.689231-55.926153L512 418.067692l-125.636923 72.467693-96.689231 55.926153z m-251.864615-179.593847l96.68923-55.72923 125.636923-72.664616v-256l-222.326153 127.803077zM541.538462 110.473846v256l125.636923 72.664616 96.68923 55.72923v-256z"  horiz-adv-x="1024" />

    
    <glyph glyph-name="wodeshitu" unicode="&#59354;" d="M0 896m78.769231 0l866.461538 0q78.769231 0 78.769231-78.769231l0-866.461538q0-78.769231-78.769231-78.769231l-866.461538 0q-78.769231 0-78.769231 78.769231l0 866.461538q0 78.769231 78.769231 78.769231ZM197.316923 668.553846h631.335385v-445.636923H197.316923zM837.316923 182.153846h-649.846154A29.538462 29.538462 0 0 0 157.538462 211.692308V682.929231a29.538462 29.538462 0 0 0 29.538461 29.538461h649.846154a29.538462 29.538462 0 0 0 29.538461-29.538461v-471.236923a29.538462 29.538462 0 0 0-29.144615-29.538462z m-620.701538 59.076923h590.76923V653.390769H216.615385zM725.858462 55.532308H298.141538a29.538462 29.538462 0 0 0 0 59.076923h427.716924a29.538462 29.538462 0 0 0 0-59.076923zM713.452308 502.153846H425.550769a27.175385 27.175385 0 0 0 0 54.350769h287.901539a27.175385 27.175385 0 0 0 0-54.350769zM713.452308 337.92H425.550769a27.175385 27.175385 0 1 0 0 54.153846h287.901539a27.175385 27.175385 0 1 0 0-54.153846zM319.606154 529.723077m-36.233846 0a36.233846 36.233846 0 1 1 72.467692 0 36.233846 36.233846 0 1 1-72.467692 0ZM319.606154 364.898462m-36.233846 0a36.233846 36.233846 0 1 1 72.467692 0 36.233846 36.233846 0 1 1-72.467692 0Z"  horiz-adv-x="1024" />

    
    <glyph glyph-name="liuchengbianpai1" unicode="&#59352;" d="M0.196923 896m78.769231 0l866.461538 0q78.769231 0 78.769231-78.769231l0-866.461538q0-78.769231-78.769231-78.769231l-866.461538 0q-78.769231 0-78.769231 78.769231l0 866.461538q0 78.769231 78.769231 78.769231ZM396.012308 683.913846h241.427692v-105.353846H396.012308zM396.012308 437.76h241.427692v-105.353846H396.012308zM396.012308 188.849231h241.427692v-105.353846H396.012308zM575.409231 233.156923h-125.046154a98.461538 98.461538 0 0 1 0-196.923077h125.046154a98.461538 98.461538 0 1 1 0 196.923077z m0-137.846154h-125.046154a39.384615 39.384615 0 0 0 0 78.769231h125.046154a39.384615 39.384615 0 1 0 0-78.769231zM575.409231 730.978462h-125.046154a98.461538 98.461538 0 0 1 0-196.923077h125.046154a98.461538 98.461538 0 1 1 0 196.923077z m0-137.846154h-125.046154a39.384615 39.384615 0 0 0 0 78.76923h125.046154a39.384615 39.384615 0 1 0 0-78.76923zM575.409231 482.461538h-125.046154a98.461538 98.461538 0 0 1 0-196.923076h125.046154a98.461538 98.461538 0 1 1 0 196.923076z m0-137.846153h-125.046154a39.384615 39.384615 0 0 0 0 78.76923h125.046154a39.384615 39.384615 0 1 0 0-78.76923zM866.461538 521.846154a154.190769 154.190769 0 0 1-155.56923 139.618461 26.781538 26.781538 0 0 1-26.978462-26.781538v-5.513846a26.781538 26.781538 0 0 1 26.978462-26.781539h1.575384a93.735385 93.735385 0 0 0 94.916923-84.676923 90.584615 90.584615 0 0 0-43.126153-82.904615v0.984615a19.692308 19.692308 0 0 1-31.901539 9.058462L689.230769 401.329231a19.692308 19.692308 0 0 1 6.892308-31.113846l57.304615-21.267693a19.692308 19.692308 0 0 1 25.009231 21.858462v4.135384A149.858462 149.858462 0 0 1 866.461538 521.846154zM292.233846 195.938462a19.692308 19.692308 0 0 1-31.901538-9.058462v-1.181538A90.978462 90.978462 0 0 0 216.615385 268.603077a93.735385 93.735385 0 0 0 95.113846 85.858461h1.772307a29.144615 29.144615 0 0 1 29.538462 29.538462 29.144615 29.144615 0 0 1-29.144615 29.144615 154.190769 154.190769 0 0 1-154.19077-126.424615 150.055385 150.055385 0 0 1 87.04-161.083077v-4.135385a19.692308 19.692308 0 0 1 25.009231-21.858461l57.304616 21.267692a19.692308 19.692308 0 0 1 5.710769 31.507693z"  horiz-adv-x="1024" />

    
    <glyph glyph-name="gongdanshenpi" unicode="&#59353;" d="M0 896m78.769231 0l866.461538 0q78.769231 0 78.769231-78.769231l0-866.461538q0-78.769231-78.769231-78.769231l-866.461538 0q-78.769231 0-78.769231 78.769231l0 866.461538q0 78.769231 78.769231 78.769231ZM439.926154 100.430769v94.523077a39.384615 39.384615 0 0 0 39.384615 39.384616 33.476923 33.476923 0 0 1 30.916923 46.473846 166.596923 166.596923 0 0 0-12.406154 88.615384 168.566154 168.566154 0 0 0 254.424616 122.486154 11.027692 11.027692 0 0 1 16.738461 9.452308V699.076923h-545.476923v-610.461538h216.615385zM420.627692 91.175385h-177.230769V679.384615h496.443077v-162.264615a29.538462 29.538462 0 0 1 59.076923 0V708.529231A29.538462 29.538462 0 0 1 769.378462 738.461538H212.873846a29.538462 29.538462 0 0 1-29.538461-29.538461v-647.286154a29.538462 29.538462 0 0 1 29.538461-29.538461h207.753846a29.538462 29.538462 0 0 1 0 59.076923zM680.763077 568.32a29.538462 29.538462 0 0 1-29.538462 29.538462H331.027692a29.538462 29.538462 0 1 1 0-59.076924h320.196923a29.538462 29.538462 0 0 1 29.538462 29.538462zM331.027692 454.104615a29.538462 29.538462 0 1 1 0-59.076923h135.089231a29.538462 29.538462 0 0 1 0 59.076923zM456.664615 309.956923h-125.636923a29.538462 29.538462 0 0 1 0-59.076923h125.636923a29.538462 29.538462 0 1 1 0 59.076923zM665.993846 345.403077m-88.221538 0a88.221538 88.221538 0 1 1 176.443077 0 88.221538 88.221538 0 1 1-176.443077 0ZM811.126154 195.347692h-116.381539V224.492308a127.409231 127.409231 0 1 1-59.076923 0v-29.144616h-116.184615a29.538462 29.538462 0 0 1-29.538462-29.538461v-106.338462a29.538462 29.538462 0 0 1 29.538462-29.538461h291.643077a29.538462 29.538462 0 0 1 29.538461 29.538461v106.338462a29.538462 29.538462 0 0 1-29.538461 29.538461z m-214.252308 153.009231a68.529231 68.529231 0 1 0 68.332308-68.332308 68.529231 68.529231 0 0 0-68.332308 68.332308zM781.587692 88.615385H549.021538v47.261538h232.566154z"  horiz-adv-x="1024" />

    
    <glyph glyph-name="gongdanshenpi2" unicode="&#59350;" d="M401.493333 25.813333H181.973333V744.746667H791.466667v-200.106667a32 32 0 0 1 64 0V776.746667a32 32 0 0 1-32 32H149.333333a32 32 0 0 1-32-32v-782.933334a32 32 0 0 1 32-32h252.16a32 32 0 0 1 0 64zM293.12 640a32 32 0 0 1 0-64h387.2a32 32 0 0 1 0 64zM456.533333 465.066667h-163.413333a32 32 0 1 1 0-64h163.413333a32 32 0 0 1 0 64zM456.533333 290.56h-163.413333a32 32 0 1 1 0-64h163.413333a32 32 0 0 1 0 64zM874.666667 151.893333h-145.066667v42.666667a150.613333 150.613333 0 1 1-64 0v-42.666667h-144.64a32 32 0 0 1-32-32v-128a32 32 0 0 1 32-32H874.666667a32 32 0 0 1 32 32v128a32 32 0 0 1-32 32zM610.986667 341.333333a86.613333 86.613333 0 1 0 86.613333-86.613333A86.613333 86.613333 0 0 0 610.986667 341.333333z m231.04-318.08H552.96v64h289.066667z"  horiz-adv-x="1024" />

    
    <glyph glyph-name="gerenxinxi3_huaban1fuben17_huaban1fuben18" unicode="&#59038;" d="M0 896m78.769231 0l866.461538 0q78.769231 0 78.769231-78.769231l0-866.461538q0-78.769231-78.769231-78.769231l-866.461538 0q-78.769231 0-78.769231 78.769231l0 866.461538q0 78.769231 78.769231 78.769231ZM256 164.036923m-59.667692 0a59.667692 59.667692 0 1 1 119.335384 0 59.667692 59.667692 0 1 1-119.335384 0ZM512 164.036923m-59.667692 0a59.667692 59.667692 0 1 1 119.335384 0 59.667692 59.667692 0 1 1-119.335384 0ZM768 164.036923m-59.667692 0a59.667692 59.667692 0 1 1 119.335384 0 59.667692 59.667692 0 1 1-119.335384 0ZM409.993846 670.72h208.147692v-115.2H409.993846zM797.538462 250.88v145.132308a29.538462 29.538462 0 0 1-29.538462 29.538461H541.538462v85.267693h80.738461a29.538462 29.538462 0 0 1 29.538462 29.538461v137.846154a29.538462 29.538462 0 0 1-29.538462 29.538461H401.723077a29.538462 29.538462 0 0 1-29.538462-29.538461v-137.846154a29.538462 29.538462 0 0 1 29.538462-29.538461h80.738461v-85.267693H256a29.538462 29.538462 0 0 1-29.538462-29.538461v-145.132308a98.461538 98.461538 0 1 1 59.076924 0v115.593846h196.923076v-115.593846a98.461538 98.461538 0 1 1 59.076924 0v115.593846h196.923076v-115.593846a98.461538 98.461538 0 1 1 59.076924 0zM431.261538 648.467692h161.476924v-78.76923h-161.476924zM256 119.532308a39.384615 39.384615 0 1 0 39.384615 39.384615 39.384615 39.384615 0 0 0-39.384615-39.384615z m256 0a39.384615 39.384615 0 1 0 39.384615 39.384615 39.384615 39.384615 0 0 0-39.384615-39.384615z m256 0a39.384615 39.384615 0 1 0 39.384615 39.384615 39.384615 39.384615 0 0 0-39.384615-39.384615z"  horiz-adv-x="1024" />

    
    <glyph glyph-name="zidong" unicode="&#59429;" d="M232.533333-55.04a32 32 0 0 0-29.866666 42.666667l135.253333 349.226666h-101.76a32.213333 32.213333 0 0 0-25.173333 12.16 31.786667 31.786667 0 0 0-5.973334 27.093334l99.2 422.186666a32.213333 32.213333 0 0 0 31.146667 24.746667H736a31.573333 31.573333 0 0 0 27.733333-16.213333 32.213333 32.213333 0 0 0 0-32.213334l-176.213333-293.333333h203.946667a32 32 0 0 0 30.08-21.333333 32.426667 32.426667 0 0 0-9.386667-35.626667l-558.933333-471.893333a32.426667 32.426667 0 0 0-20.693334-7.466667zM277.333333 401.706667h106.666667a32 32 0 0 0 29.866667-42.666667l-106.666667-275.84L704 417.28h-172.8a32 32 0 0 0-27.52 48.426667l175.786667 293.333333H360.746667z"  horiz-adv-x="1024" />

    
    <glyph glyph-name="shoudong" unicode="&#59430;" d="M802.346667 451.626667a91.093333 91.093333 0 0 1-45.013334-10.026667 89.386667 89.386667 0 0 1-77.44 45.653333 85.333333 85.333333 0 0 1-39.893333-10.026666 90.026667 90.026667 0 0 1-77.653333 45.653333 85.333333 85.333333 0 0 1-26.666667-4.693333v104.106666a94.293333 94.293333 0 0 1-85.333333 96.853334A88.746667 88.746667 0 0 1 384 694.613333a94.506667 94.506667 0 0 1-29.44-68.693333v-274.56L328.746667 384a120.746667 120.746667 0 0 1-142.293334 42.666667 77.44 77.44 0 0 1-46.506666-46.293334c-9.386667-27.52-2.56-61.013333 21.333333-103.466666l161.493333-263.893334 1.92-2.773333a192 192 0 0 1 152.533334-69.546667H661.333333A220.586667 220.586667 0 0 1 888.106667 160v194.773333a94.506667 94.506667 0 0 1-85.76 96.853334z m21.333333-291.626667A157.653333 157.653333 0 0 0 661.333333 3.84h-183.893333a129.92 129.92 0 0 0-100.693333 42.666667l-160.213334 262.186666c-19.626667 34.773333-16.853333 47.786667-16 49.92s4.48 5.76 10.666667 8.106667a58.666667 58.666667 0 0 0 67.626667-23.466667l34.346666-42.666666a57.813333 57.813333 0 0 1 65.066667-18.986667 59.733333 59.733333 0 0 1 39.893333 57.386667V625.92a30.293333 30.293333 0 0 0 9.386667 21.333333 24.746667 24.746667 0 0 0 18.773333 7.253334 31.573333 31.573333 0 0 0 25.386667-33.066667v-213.333333a32 32 0 0 1 64 0v21.333333a26.88 26.88 0 1 0 53.546667 0v-56.96a32 32 0 0 1 64 0v21.333333a26.88 26.88 0 1 0 53.333333 0v-56.96a32 32 0 0 1 64 0v21.333334a31.146667 31.146667 0 0 0 9.386667 22.4 25.6 25.6 0 0 0 18.773333 7.04 31.36 31.36 0 0 0 25.386667-32.853334zM283.306667 546.346667a23.893333 23.893333 0 0 1 8.533333 1.493333 26.88 26.88 0 0 1 16.64 33.92 146.133333 146.133333 0 1 0 284.373333 47.146667v-13.866667a26.666667 26.666667 0 0 1 23.893334-29.226667 27.093333 27.093333 0 0 1 29.226666 24.106667v18.986667a199.466667 199.466667 0 1 1-388.266666-64 26.88 26.88 0 0 1 25.6-18.56z"  horiz-adv-x="1024" />

    
    <glyph glyph-name="fuwuqishuliang" unicode="&#59425;" d="M0 896m78.769231 0l866.461538 0q78.769231 0 78.769231-78.769231l0-866.461538q0-78.769231-78.769231-78.769231l-866.461538 0q-78.769231 0-78.769231 78.769231l0 866.461538q0 78.769231 78.769231 78.769231ZM797.144615 731.569231h-571.076923A68.923077 68.923077 0 0 1 157.538462 662.646154v-557.292308a68.923077 68.923077 0 0 1 68.923076-68.923077h571.076924a68.923077 68.923077 0 0 1 68.923076 68.923077v557.292308a68.923077 68.923077 0 0 1-69.316923 68.923077zM216.615385 460.406154h590.76923v-152.812308H216.615385z m0 202.24a9.846154 9.846154 0 0 0 9.846153 9.846154h571.076924a9.846154 9.846154 0 0 0 9.846153-9.846154v-143.163077H216.615385z m590.76923-557.292308a9.846154 9.846154 0 0 0-9.846153-9.846154h-571.076924a9.846154 9.846154 0 0 0-9.846153 9.846154v143.163077h590.76923zM311.335385 643.150769a29.538462 29.538462 0 0 1-29.538462-29.538461v-35.052308a29.538462 29.538462 0 0 1 59.076923 0v35.052308a29.538462 29.538462 0 0 1-29.538461 29.538461zM311.335385 431.064615a29.538462 29.538462 0 0 1-29.538462-29.538461v-35.052308a29.538462 29.538462 0 0 1 59.076923 0v35.052308a29.538462 29.538462 0 0 1-29.538461 29.538461zM311.335385 124.849231a29.538462 29.538462 0 0 1 29.538461 29.538461v35.052308a29.538462 29.538462 0 1 1-59.076923 0v-35.052308a29.538462 29.538462 0 0 1 29.538462-29.538461zM728.615385 625.624615h-157.538462a29.538462 29.538462 0 0 1 0-59.076923h157.538462a29.538462 29.538462 0 0 1 0 59.076923zM728.615385 411.175385h-157.538462a29.538462 29.538462 0 0 1 0-59.076923h157.538462a29.538462 29.538462 0 0 1 0 59.076923zM571.076923 137.846154h157.538462a29.538462 29.538462 0 0 1 0 59.076923h-157.538462a29.538462 29.538462 0 0 1 0-59.076923z"  horiz-adv-x="1024" />

    
    <glyph glyph-name="xitongshuliang" unicode="&#59426;" d="M0 896m78.769231 0l866.461538 0q78.769231 0 78.769231-78.769231l0-866.461538q0-78.769231-78.769231-78.769231l-866.461538 0q-78.769231 0-78.769231 78.769231l0 866.461538q0 78.769231 78.769231 78.769231ZM835.938462 36.430769H187.864615A29.538462 29.538462 0 0 0 157.538462 65.969231V506.289231a29.538462 29.538462 0 0 0 29.538461 29.538461h648.861539a29.538462 29.538462 0 0 0 29.538461-29.538461v-440.32a29.538462 29.538462 0 0 0-29.538461-29.538462z m-619.323077 59.076923h590.76923V476.750769H216.615385zM558.08 164.430769h-1.575385a30.129231 30.129231 0 0 0-24.812307 16.344616l-68.529231 137.846153L433.230769 273.526154a29.144615 29.144615 0 0 0-24.615384-13.390769h-109.686154a29.538462 29.538462 0 0 0 0 59.076923H393.846154l48.836923 75.224615a29.538462 29.538462 0 0 0 51.2-2.953846l68.135385-137.846154L592.935385 305.230769a29.341538 29.341538 0 0 0 25.00923 13.981539h107.126154a29.538462 29.538462 0 0 0 0-59.076923h-90.781538l-51.2-81.92a29.735385 29.735385 0 0 0-25.009231-13.784616zM762.289231 575.015385h-504.123077a29.538462 29.538462 0 0 0 0 59.076923h504.123077a29.538462 29.538462 0 0 0 0-59.076923zM690.215385 672.492308H330.24a29.538462 29.538462 0 0 0 0 59.076923h359.975385a29.538462 29.538462 0 0 0 0-59.076923z"  horiz-adv-x="1024" />

    
    <glyph glyph-name="fuwumokuaishuliang" unicode="&#59427;" d="M0 896m78.769231 0l866.461538 0q78.769231 0 78.769231-78.769231l0-866.461538q0-78.769231-78.769231-78.769231l-866.461538 0q-78.769231 0-78.769231 78.769231l0 866.461538q0 78.769231 78.769231 78.769231ZM412.356923 486.203077h-184.713846a68.923077 68.923077 0 0 0-68.923077 68.923077v113.230769a68.923077 68.923077 0 0 0 68.923077 68.923077h184.713846a68.923077 68.923077 0 0 0 68.923077-68.923077v-113.230769a68.923077 68.923077 0 0 0-68.923077-68.923077z m-184.713846 192a10.043077 10.043077 0 0 1-9.846154-9.846154v-113.230769a9.846154 9.846154 0 0 1 9.846154-9.846154h184.713846a9.846154 9.846154 0 0 1 9.846154 9.846154v113.230769a10.043077 10.043077 0 0 1-9.846154 9.846154zM412.356923 30.72h-184.713846a68.923077 68.923077 0 0 0-68.923077 68.923077V366.473846a68.923077 68.923077 0 0 0 68.923077 68.923077h184.713846a68.923077 68.923077 0 0 0 68.923077-68.923077v-266.830769a68.923077 68.923077 0 0 0-68.923077-68.923077z m-184.713846 345.6a10.043077 10.043077 0 0 1-9.846154-9.846154v-266.830769a10.043077 10.043077 0 0 1 9.846154-9.846154h184.713846a10.043077 10.043077 0 0 1 9.846154 9.846154V366.473846a10.043077 10.043077 0 0 1-9.846154 9.846154zM796.356923 30.72h-184.713846a68.923077 68.923077 0 0 0-68.923077 68.923077v113.230769a68.923077 68.923077 0 0 0 68.923077 68.923077h184.713846a68.923077 68.923077 0 0 0 68.923077-68.923077v-113.230769a68.923077 68.923077 0 0 0-68.923077-68.923077z m-184.713846 192a9.846154 9.846154 0 0 1-9.846154-9.846154v-113.230769a10.043077 10.043077 0 0 1 9.846154-9.846154h184.713846a10.043077 10.043077 0 0 1 9.846154 9.846154v113.230769a9.846154 9.846154 0 0 1-9.846154 9.846154zM835.741538 672.098462H572.258462a29.538462 29.538462 0 0 0 0 59.076923h263.483076a29.538462 29.538462 0 0 0 0-59.076923zM835.741538 521.846154H572.258462a29.538462 29.538462 0 0 0 0 59.076923h263.483076a29.538462 29.538462 0 0 0 0-59.076923zM835.741538 372.184615H572.258462a29.538462 29.538462 0 1 0 0 59.076923h263.483076a29.538462 29.538462 0 0 0 0-59.076923z"  horiz-adv-x="1024" />

    
    <glyph glyph-name="xiangmushuliang" unicode="&#59428;" d="M0 896m78.769231 0l866.461538 0q78.769231 0 78.769231-78.769231l0-866.461538q0-78.769231-78.769231-78.769231l-866.461538 0q-78.769231 0-78.769231 78.769231l0 866.461538q0 78.769231 78.769231 78.769231ZM836.529231 580.923077H603.372308l-98.461539 112.836923a29.538462 29.538462 0 0 1-22.252307 10.043077h-295.384616A29.538462 29.538462 0 0 1 157.538462 673.673846v-579.347692a29.538462 29.538462 0 0 1 29.538461-29.538462h649.846154a29.538462 29.538462 0 0 1 29.538461 29.538462V550.793846A29.538462 29.538462 0 0 1 836.529231 580.923077z m-367.261539 63.212308L524.996923 580.923077H216.615385v63.212308zM807.384615 123.864615H216.615385V521.846154h590.76923zM447.015385 399.163077a29.538462 29.538462 0 0 1 29.538461-29.538462h261.12a29.538462 29.538462 0 0 1 0 59.076923H476.553846a29.538462 29.538462 0 0 1-29.538461-29.538461zM737.673846 275.495385H476.553846a29.538462 29.538462 0 0 1 0-59.076923h261.12a29.538462 29.538462 0 1 1 0 59.076923zM334.769231 443.076923a43.913846 43.913846 0 1 1 43.913846-43.716923A43.52 43.52 0 0 1 334.769231 443.076923zM334.769231 289.870769A43.913846 43.913846 0 1 1 379.273846 246.153846 43.716923 43.716923 0 0 1 334.769231 289.870769z"  horiz-adv-x="1024" />

    
    <glyph glyph-name="tixing" unicode="&#59148;" d="M878.933333 145.066667h-55.466666V437.333333c0 162.133333-123.733333 296.533333-281.6 311.466667V782.933333c0 17.066667-14.933333 32-32 32s-32-14.933333-32-32v-32C320 733.866667 196.266667 599.466667 196.266667 437.333333v-294.4H145.066667c-17.066667 0-32-14.933333-32-32s14.933333-32 32-32h211.2c12.8-72.533333 78.933333-128 155.733333-128s140.8 55.466667 155.733333 128h213.333334c17.066667 0 32 14.933333 32 32s-14.933333 34.133333-34.133334 34.133334zM258.133333 437.333333C258.133333 576 371.2 691.2 512 691.2s253.866667-113.066667 253.866667-253.866667v-294.4H258.133333V437.333333z m251.733334-428.8c-46.933333 0-85.333333 32-98.133334 72.533334h194.133334c-10.666667-42.666667-49.066667-72.533333-96-72.533334z"  horiz-adv-x="1024" />

    
    <glyph glyph-name="zujianguanli" unicode="&#59422;" d="M556.586667 45.013333l-35.84-21.333333L518.4 384l298.666667 155.733333v-125.226666a32 32 0 1 1 64 0v151.893333a75.306667 75.306667 0 0 1-37.76 65.28L526.72 814.293333a75.733333 75.733333 0 0 1-75.52 0L135.253333 631.893333a75.946667 75.946667 0 0 1-37.76-65.493333v-364.8a75.52 75.52 0 0 1 37.76-65.28l315.946667-182.613333a76.373333 76.373333 0 0 1 37.76-10.026667 75.52 75.52 0 0 1 37.546667 10.026667l62.08 35.84a32 32 0 1 1-32 55.466666zM483.2 758.826667a11.733333 11.733333 0 0 0 11.306667 0l285.653333-164.906667-293.546667-153.173333-288.853333 153.173333zM167.253333 192a11.733333 11.733333 0 0 0-5.76 10.026667V540.8l292.906667-155.52 2.346667-360.96zM635.733333 297.6a32 32 0 0 1 32-32h226.773334a32 32 0 0 1 0 64H667.733333a32 32 0 0 1-32-32zM894.506667 210.346667H667.733333a32 32 0 1 1 0-64h226.773334a32 32 0 0 1 0 64zM894.506667 90.88H667.733333a32 32 0 0 1 0-64h226.773334a32 32 0 0 1 0 64z"  horiz-adv-x="1024" />

    
    <glyph glyph-name="zujianduijie" unicode="&#59423;" d="M273.28 332.373333H151.04v362.666667A53.546667 53.546667 0 0 0 204.373333 746.666667h400.426667v-356.053334a96 96 0 1 1 64 0V779.52A32 32 0 0 1 636.8 810.666667H204.373333a117.546667 117.546667 0 0 1-117.333333-117.333334v-392.96a32.213333 32.213333 0 0 1 32-32h154.24a32 32 0 1 1 0 64z m362.666667-64a32 32 0 1 0 32 32 32 32 0 0 0-31.146667-32zM904.96 499.626667h-156.586667a32 32 0 0 1 0-64h124.586667v-362.666667a53.546667 53.546667 0 0 0-53.333333-53.333333H419.2V377.386667a96 96 0 1 1-64 0v-388.906667a32 32 0 0 1 32-32h432.426667a117.546667 117.546667 0 0 1 117.333333 117.333333V467.626667a32.213333 32.213333 0 0 1-32 32z m-517.76 0a32 32 0 1 0-32-32 32 32 0 0 0 32 32z"  horiz-adv-x="1024" />

    
    <glyph glyph-name="zujianliebiao" unicode="&#59424;" d="M437.333333 426.666667h-320A32 32 0 0 0 85.333333 458.88v320A32 32 0 0 0 117.333333 810.666667h320A32 32 0 0 0 469.333333 778.88v-320A32 32 0 0 0 437.333333 426.666667zM149.333333 490.666667h256V746.666667H149.333333zM437.333333-42.666667h-320A32 32 0 0 0 85.333333-10.88v320A32 32 0 0 0 117.333333 341.333333h320a32 32 0 0 0 32-32v-320a32 32 0 0 0-32-32zM149.333333 21.333333h256V277.333333H149.333333zM906.666667 693.546667h-320a32 32 0 0 0 0 64h320a32 32 0 0 0 0-64zM906.666667 480.213333h-320a32 32 0 0 0 0 64h320a32 32 0 0 0 0-64zM906.666667 223.786667h-320a32 32 0 0 0 0 64h320a32 32 0 0 0 0-64zM906.666667 10.453333h-320a32 32 0 1 0 0 64h320a32 32 0 0 0 0-64z"  horiz-adv-x="1024" />

    
    <glyph glyph-name="yingyongtuopu" unicode="&#59415;" d="M599.253333 527.36h306.773334a32 32 0 0 1 32 32V777.386667a32 32 0 0 1-32 32H599.253333a32 32 0 0 1-32-32v-77.013334H292.48a32 32 0 0 1-32-32v-142.08H117.973333A32 32 0 0 1 85.333333 494.293333v-221.866666a32 32 0 0 1 32-32h142.506667v-140.373334a32.213333 32.213333 0 0 1 32-32h275.413333v-77.44a32 32 0 0 1 32-32h306.773334a32 32 0 0 1 32 32V209.706667a32 32 0 0 1-32 32H599.253333a32 32 0 0 1-32-32v-77.653334H324.48v108.373334h142.72a32 32 0 0 1 32 32v221.866666a32 32 0 0 1-32 32h-142.72v110.08h242.773333v-77.013333a32.213333 32.213333 0 0 1 32-32z m32-349.653333H874.666667v-155.093334H631.253333z m-196.053333 126.72H149.333333v157.866666h285.866667z m196.053333 440.96H874.666667v-154.026667H631.253333z"  horiz-adv-x="1024" />

    
    <glyph glyph-name="yunyingguanli" unicode="&#59416;" d="M896 143.146667H128a32 32 0 0 0-32 32v554.666666A32 32 0 0 0 128 761.813333h768a32 32 0 0 0 32-32v-554.666666a32 32 0 0 0-32-32z m-736 64h704v490.666666h-704zM809.173333 6.186667H214.826667a32 32 0 0 0 0 64h594.346666a32 32 0 0 0 0-64zM583.04 277.333333a32 32 0 0 0-32 32v164.906667a32 32 0 1 0 64 0v-164.693333a32 32 0 0 0-32-32.213334zM440.96 277.333333a32 32 0 0 0-32 32V533.333333a32 32 0 0 0 64 0v-224a32 32 0 0 0-32-32zM725.333333 277.333333a32 32 0 0 0-32 32V580.053333a32 32 0 0 0 64 0v-270.506666A32 32 0 0 0 725.333333 277.333333zM298.666667 277.333333a32 32 0 0 0-32 32v105.173334a32 32 0 0 0 64 0v-104.96A32 32 0 0 0 298.666667 277.333333z"  horiz-adv-x="1024" />

    
    <glyph glyph-name="tiaojianluyou" unicode="&#59417;" d="M705.706667 412.373333a227.626667 227.626667 0 1 1 227.413333-227.626666 227.626667 227.626667 0 0 1-227.413333 227.626666z m0-401.706666a174.293333 174.293333 0 1 0 174.08 174.08 174.293333 174.293333 0 0 0-174.08-174.08zM456.32 32H154.453333v195.2h232.96a32 32 0 1 1 0 64H164.266667l67.84 248.746667h547.2l19.413333-88.32a32 32 0 0 1 62.506667 13.653333l-24.96 113.493333a32 32 0 0 1-31.146667 25.173334h-71.466667V779.306667a32 32 0 1 1-64 0v-175.36h-326.4V779.306667a32 32 0 1 1-64 0v-175.36H207.786667a32.213333 32.213333 0 0 1-30.933334-23.68l-85.333333-312.533334a1.92 1.92 0 0 0 0-1.066666v-2.986667a21.333333 21.333333 0 0 1 0-3.413333V0a32 32 0 0 1 32-32h332.8a32 32 0 0 1 0 64zM265.6 129.706667m-42.666667 0a42.666667 42.666667 0 1 1 85.333334 0 42.666667 42.666667 0 1 1-85.333334 0ZM784 276.266667h-152.746667a32 32 0 0 1 0-64h152.746667a32 32 0 0 1 0 64zM784 157.226667h-152.746667a32 32 0 1 1 0-64h152.746667a32 32 0 0 1 0 64z"  horiz-adv-x="1024" />

    
    <glyph glyph-name="zhipincangku" unicode="&#59418;" d="M924.586667 540.16L530.133333 805.333333a32.64 32.64 0 0 1-35.626666 0L99.413333 540.16a32 32 0 1 1 35.84-53.12l3.413334 2.346667V32A74.666667 74.666667 0 0 1 213.333333-42.666667h597.333334a74.666667 74.666667 0 0 1 74.666666 74.666667V489.386667l3.413334-2.346667a32.853333 32.853333 0 0 1 17.92-5.546667 31.786667 31.786667 0 0 1 26.666666 14.293334 32.213333 32.213333 0 0 1-8.746666 44.373333zM352 21.333333V341.333333h320v-320z m469.333333 10.666667a10.666667 10.666667 0 0 0-10.666666-10.666667h-74.666667V373.333333A32 32 0 0 1 704 405.333333H320a32 32 0 0 1-32-32V21.333333H213.333333a10.666667 10.666667 0 0 0-10.666666 10.666667V532.266667L512 740.053333l309.333333-207.786666zM565.333333 289.493333h-106.666666a32 32 0 0 1 0-64h106.666666a32 32 0 0 1 0 64zM384 541.653333a32 32 0 0 1 32-32h192a32 32 0 0 1 0 64h-192a32 32 0 0 1-32-32z"  horiz-adv-x="1024" />

    
    <glyph glyph-name="yingyongxitong" unicode="&#59419;" d="M896 143.146667H128a32 32 0 0 0-32 32v554.666666A32 32 0 0 0 128 761.813333h768a32 32 0 0 0 32-32v-554.666666a32 32 0 0 0-32-32z m-736 64h704v490.666666h-704zM809.173333 6.186667H214.826667a32 32 0 0 0 0 64h594.346666a32 32 0 0 0 0-64zM523.733333 367.786667a82.133333 82.133333 0 1 0 82.346667 82.133333 82.346667 82.346667 0 0 0-82.346667-82.133333z m0 110.933333a28.8 28.8 0 1 1 29.013334-28.8 28.8 28.8 0 0 1-29.013334 28.8zM554.666667 256h-61.226667a26.88 26.88 0 0 0-21.333333 11.733333l-16.64 24.533334a35.84 35.84 0 0 1-29.866667 15.786666h-21.333333a26.453333 26.453333 0 0 0-21.333334 11.093334L337.066667 381.866667a27.093333 27.093333 0 0 0 0 30.293333l13.44 21.333333a35.626667 35.626667 0 0 1 0 38.613334l-14.08 23.04a26.026667 26.026667 0 0 0 0 27.52l36.053333 60.586666a27.52 27.52 0 0 0 21.333333 14.08h31.146667a35.626667 35.626667 0 0 1 29.653333 15.573334l16.64 24.533333a26.88 26.88 0 0 0 21.333334 11.52H554.666667a26.24 26.24 0 0 0 21.333333-11.52l16.64-24.32a36.48 36.48 0 0 1 29.866667-15.786667H661.333333a26.88 26.88 0 0 0 23.893334-14.72l29.866666-60.373333a26.453333 26.453333 0 0 0-1.28-25.813333l-14.08-23.04a36.48 36.48 0 0 1 0-38.613334l13.226667-20.266666a26.88 26.88 0 0 0 1.92-26.026667l-29.866667-64a26.88 26.88 0 0 0-24.106666-15.36h-37.76a36.053333 36.053333 0 0 1-29.866667-15.786667L576 268.586667a26.88 26.88 0 0 0-21.333333-12.586667z m-46.933334 53.333333h32.853334l8.746666 13.013334A89.173333 89.173333 0 0 0 623.146667 362.666667h20.053333l16.426667 34.56-5.12 8.106666a89.386667 89.386667 0 0 0-1.28 95.573334l6.4 10.666666-16 32.213334h-21.333334a89.386667 89.386667 0 0 0-73.813333 39.04l-8.746667 12.586666h-32.213333l-8.746667-12.586666a88.96 88.96 0 0 0-73.813333-39.04h-16l-20.053333-33.706667 5.546666-9.173333a89.386667 89.386667 0 0 0 0-95.573334l-3.413333-5.333333L417.066667 362.666667h7.68a89.173333 89.173333 0 0 0 74.026666-39.253334z"  horiz-adv-x="1024" />

    
    <glyph glyph-name="wenjianshangchuan" unicode="&#59420;" d="M769.28 544a258.346667 258.346667 0 0 1-513.28 0 228.906667 228.906667 0 0 1 59.946667-449.92 32 32 0 1 1 0 64 164.906667 164.906667 0 0 0-24.32 328.106667 33.92 33.92 0 0 1 27.093333 33.706666 194.346667 194.346667 0 0 0 388.693333 1.493334v-3.413334a32 32 0 0 1 27.093334-31.786666 164.906667 164.906667 0 0 0-24.32-328.106667 32 32 0 0 1 0-64 228.906667 228.906667 0 0 1 59.093333 449.92zM534.613333 399.36a30.506667 30.506667 0 0 1-10.453333 6.826667 28.373333 28.373333 0 0 1-11.52 2.346666 28.16 28.16 0 0 1-11.306667-2.346666 28.586667 28.586667 0 0 1-10.453333-6.826667l-115.413333-115.413333a32.213333 32.213333 0 0 1 0-45.226667 31.786667 31.786667 0 0 1 45.226666 0L480 298.666667v-277.333334a32 32 0 0 1 64 0V298.666667l60.8-60.8a31.786667 31.786667 0 0 1 22.613333-9.386667 32 32 0 0 1 22.613334 54.613333z"  horiz-adv-x="1024" />

    
    <glyph glyph-name="tiquanshenqing" unicode="&#59421;" d="M474.24 29.653333l-17.706667-6.613333-195.84 79.573333a180.693333 180.693333 0 0 0-112.853333 167.893334v377.6a10.88 10.88 0 0 0 7.893333 10.24l301.866667 86.826666 301.226667-86.826666a10.666667 10.666667 0 0 0 7.68-10.24v-195.84a32 32 0 1 1 64 0v195.84a74.88 74.88 0 0 1-53.973334 71.68L475.306667 806.613333a64 64 0 0 1-36.053334 0L137.813333 719.786667a75.306667 75.306667 0 0 1-53.973333-71.68v-377.6A244.48 244.48 0 0 1 236.586667 42.666667l195.84-79.573334a65.493333 65.493333 0 0 1 49.706666 0l16.213334 6.613334a32 32 0 1 1-24.106667 59.306666zM457.173333 271.146667A26.453333 26.453333 0 0 1 483.84 298.666667v100.693333a129.92 129.92 0 1 1-53.333333 0V298.666667a26.453333 26.453333 0 0 1 26.666666-27.52z m-76.586666 256a76.8 76.8 0 1 0 76.586666-76.586667 76.8 76.8 0 0 0-76.586666 75.946667zM715.306667 405.333333a219.52 219.52 0 1 1 219.52-219.733333A219.733333 219.733333 0 0 1 715.306667 405.333333z m0-385.706666a166.186667 166.186667 0 1 0 166.186666 166.186666 166.4 166.4 0 0 0-166.186666-166.4zM734.08 298.666667a21.333333 21.333333 0 0 1-8.746667 5.76 25.813333 25.813333 0 0 1-21.333333 0 26.026667 26.026667 0 0 1-8.746667-5.76l-81.28-81.493334a26.453333 26.453333 0 0 1 37.546667-37.546666l36.053333 35.84v-118.613334a26.666667 26.666667 0 0 1 53.333334 0v118.186667l35.84-35.84a26.666667 26.666667 0 0 1 18.986666-7.893333 25.813333 25.813333 0 0 1 18.773334 7.893333 26.453333 26.453333 0 0 1 0 37.546667z"  horiz-adv-x="1024" />

    
    </font>
</defs>
</svg>
